<svg xmlns="http://www.w3.org/2000/svg" viewBox="0 0 56.89 51.19"><defs><style>.cls-1{fill:#8dbce2;}.cls-2{fill:#ffce6c;}.cls-3{fill:#234a60;}.cls-4{fill:#a6cee8;}.cls-5{fill:#f29e4c;}</style></defs><title>Risorsa 4</title><g id="Livello_2" data-name="Livello 2"><g id="Livello_1-2" data-name="Livello 1"><path class="cls-1" d="M44.47,22.1a20.69,20.69,0,0,0,7.73-7.36c2.57-4.36,2.47-9.42-2.37-12.06a12.7,12.7,0,0,0-8.45-1.43C35.53,2.39,31.48,8,29.61,13.32c-1,2.94-2.46,6.64-1.71,9.79C29.41,29.43,41.19,24,44.47,22.1Z"/><path class="cls-2" d="M51,43.41l-.46.4-.42.37a22.26,22.26,0,0,1-3,2.06h0a35,35,0,0,1-10.59,3.81c-.77.16-1.55.31-2.33.44-.94.16-1.88.3-2.82.41a30.41,30.41,0,0,1-9.94-.23,20,20,0,0,1-3.2-1A15.31,15.31,0,0,1,11,43.91c-2.76-4.33-2.62-10.14-.29-14.71a20.49,20.49,0,0,1,3.94-5.33,25.74,25.74,0,0,1,11-6.17,31,31,0,0,1,5.25-1,31.68,31.68,0,0,1,11.55.86,26.69,26.69,0,0,1,3.8,1.34c.64.28,1.27.59,1.87.92a16.41,16.41,0,0,1,7.13,6.88C57.88,32.23,55.53,39.21,51,43.41Z"/><path class="cls-3" d="M36.59,50.05c-.86-.74-2-1.67-3.18-2.86a26.13,26.13,0,0,1-4.2-5.28,21.2,21.2,0,0,1-1.7-3.48,19,19,0,0,1-1.07-3.93C25.55,29,27.29,23.7,29,20.16c.67-1.37,1.32-2.53,1.83-3.48a31,31,0,0,0-5.25,1l-.11.12a22.29,22.29,0,0,0-5,17.62,20.15,20.15,0,0,0,1.57,5.25A20.69,20.69,0,0,0,24.65,45a20.9,20.9,0,0,0,6.22,5.56c.19.11.38.22.57.31Z"/><path class="cls-3" d="M46.21,18.88c-.36.57-.75,1.21-1.16,1.91-1.69,2.88-3.52,7.17-2.76,11.56A14.42,14.42,0,0,0,44.8,38.2a22.36,22.36,0,0,0,3.85,4.12c.68.57,1.33,1.06,1.91,1.49l-.42.37a22.26,22.26,0,0,1-3,2.06h0L46.49,46a17.37,17.37,0,0,1-6-4.26,16.58,16.58,0,0,1-4.15-8.37,15.84,15.84,0,0,1-.05-5,17.68,17.68,0,0,1,1.24-4.32,18,18,0,0,1,4.19-6c.22-.2.44-.4.65-.57Z"/><path class="cls-3" d="M19.67,50.19c-.46-.14-.92-.3-1.37-.48A15.31,15.31,0,0,1,11,43.91c-2.76-4.33-2.62-10.14-.29-14.71a20.49,20.49,0,0,1,3.94-5.33c.49-.47,1-.92,1.52-1.35a25.43,25.43,0,0,0-1.93,3.75c-2.33,5.62-2.47,12.75.29,18.07A16.17,16.17,0,0,0,19.67,50.19Z"/><path class="cls-3" d="M11.93,33l-.54,9.62q-5.55-.9-11-2A.36.36,0,0,1,.17,40c1.36-.85,2.73-1.67,4.12-2.48s2.78-1.67,4.25-2.46C9.7,34.46,10.77,33.67,11.93,33Z"/><path class="cls-4" d="M16.58,21.06A20.54,20.54,0,0,1,8.85,13.7C6.27,9.34,6.37,4.28,11.21,1.64A12.72,12.72,0,0,1,19.67.21C25.51,1.35,29.57,7,31.44,12.28c1,2.94,2.45,6.64,1.7,9.79C31.63,28.39,19.86,22.92,16.58,21.06Z"/><path class="cls-5" d="M51,27.45a1.4,1.4,0,0,0-1.66-.87c-1.59.38-2.34,3.07-.49,3.62a.46.46,0,0,0,.26,0,1.73,1.73,0,0,0,1.4-.71A2.22,2.22,0,0,0,51,27.45Z"/><path class="cls-5" d="M53.28,26.26a1.42,1.42,0,0,1,1.21-1.43c1.62-.24,3.32,2,1.81,3.18a.42.42,0,0,1-.24.1A1.73,1.73,0,0,1,54.49,28,2.21,2.21,0,0,1,53.28,26.26Z"/></g></g></svg>