<?xml version="1.0" encoding="utf-8"?>
<!-- Generator: Adobe Illustrator 22.1.0, SVG Export Plug-In . SVG Version: 6.00 Build 0)  -->
<svg version="1.1" id="Livello_1" xmlns="http://www.w3.org/2000/svg" xmlns:xlink="http://www.w3.org/1999/xlink" x="0px" y="0px"
	 viewBox="0 0 595.3 841.9" style="enable-background:new 0 0 595.3 841.9;" xml:space="preserve">
<style type="text/css">
	.st0{fill:#FFDFAB;}
	.st1{fill:#F2BB3B;}
	.st2{fill:url(#SVGID_1_);}
	.st3{fill:url(#SVGID_2_);}
	.st4{fill:url(#SVGID_3_);}
	.st5{fill:url(#SVGID_4_);}
	.st6{fill:url(#SVGID_5_);}
	.st7{fill:url(#SVGID_6_);}
	.st8{fill:#FFFFFF;}
	.st9{fill:#FFDE76;}
	.st10{fill:#E66D34;}
	.st11{fill:#C7D3DD;}
	.st12{fill:#074388;}
	.st13{fill:#4D8DC1;}
	.st14{fill:#E89634;}
	.st15{fill:#FEC2C2;}
	.st16{fill:#EA8B3D;}
</style>
<g>
	<g>
		
			<ellipse transform="matrix(0.9983 -5.907111e-02 5.907111e-02 0.9983 -42.2802 9.7537)" class="st0" cx="143.8" cy="720" rx="85.4" ry="6.4"/>
	</g>
	<g>
		<path class="st1" d="M59.1,297.1L59.1,297.1L59.1,297.1c-8.4,2.4-14.7,9.3-16.3,17.9l-0.8,4.2l-0.8-4.2
			c-1.5-8.6-7.9-15.6-16.3-17.9h0h0c8.4-2.4,14.7-9.3,16.3-17.9L42,275l0.8,4.2C44.4,287.8,50.7,294.8,59.1,297.1z"/>
	</g>
	<g>
		<path class="st1" d="M290.5,645L290.5,645L290.5,645c-8.4,2.4-14.7,9.3-16.3,17.9l-0.8,4.2l-0.8-4.2c-1.5-8.6-7.9-15.6-16.3-17.9
			v0l0,0c8.4-2.4,14.7-9.3,16.3-17.9l0.8-4.2l0.8,4.2C275.8,635.7,282.1,642.7,290.5,645z"/>
	</g>
	<g>
		<path class="st1" d="M57.5,536L57.5,536L57.5,536c-7.4,2.1-12.9,8.2-14.3,15.7l-0.7,3.7l-0.7-3.7c-1.4-7.5-6.9-13.6-14.3-15.7h0h0
			c7.4-2.1,12.9-8.2,14.3-15.7l0.7-3.7l0.7,3.7C44.6,527.9,50.2,534,57.5,536z"/>
	</g>
	<g>
		<path class="st1" d="M408.8,450.7L408.8,450.7L408.8,450.7c-3.8,1.1-6.6,4.2-7.3,8l-0.3,1.9l-0.3-1.9c-0.7-3.8-3.5-7-7.3-8l0,0
			l0,0c3.8-1.1,6.6-4.2,7.3-8l0.3-1.9l0.3,1.9C402.2,446.5,405.1,449.6,408.8,450.7z"/>
	</g>
	<g>
		<path class="st1" d="M426.4,440.4L426.4,440.4L426.4,440.4c-3.8,1.1-6.6,4.2-7.3,8l-0.3,1.9l-0.3-1.9c-0.7-3.8-3.5-7-7.3-8l0,0
			l0,0c3.8-1.1,6.6-4.2,7.3-8l0.3-1.9l0.3,1.9C419.8,436.3,422.7,439.4,426.4,440.4z"/>
	</g>
	<g>
		<path class="st1" d="M177.5,506L177.5,506L177.5,506c-5.2,1.5-9.1,5.7-10,11l-0.5,2.6l-0.5-2.6c-1-5.3-4.8-9.6-10-11l0,0l0,0
			c5.2-1.5,9.1-5.7,10-11l0.5-2.6l0.5,2.6C168.5,500.3,172.3,504.6,177.5,506z"/>
	</g>
	<g>
		<path class="st1" d="M63,287.3c0,0-1-10.9-9.5-12.5c0,0,7.7-1.4,9.5-12.3c0,0,1,11.1,8.7,12.4C71.7,275,64.6,275.1,63,287.3z"/>
	</g>
	<g>
		<path class="st1" d="M26.3,520.9c0,0-0.3-8.5-7-10c0,0,6.8-3.8,7-11.4c0,0,0.6,8,6.1,10.7C32.4,510.2,27,512.7,26.3,520.9z"/>
	</g>
	<g>
		<path class="st1" d="M65.7,533.1c0,0-0.2-6.2-5.1-7.3c0,0,4.9-2.8,5.1-8.3c0,0,0.4,5.8,4.5,7.8C70.1,525.3,66.2,527.2,65.7,533.1z
			"/>
	</g>
	<g>
		<g>
			
				<linearGradient id="SVGID_1_" gradientUnits="userSpaceOnUse" x1="51.9679" y1="468.8988" x2="160.8652" y2="466.6302" gradientTransform="matrix(0.9967 8.066985e-02 -8.066985e-02 0.9967 442.8593 91.4096)">
				<stop  offset="0" style="stop-color:#E30613"/>
				<stop  offset="0.1876" style="stop-color:#E30914;stop-opacity:0.8124"/>
				<stop  offset="0.338" style="stop-color:#E41316;stop-opacity:0.662"/>
				<stop  offset="0.4755" style="stop-color:#E5241A;stop-opacity:0.5245"/>
				<stop  offset="0.6053" style="stop-color:#E73C1F;stop-opacity:0.3947"/>
				<stop  offset="0.7298" style="stop-color:#EA5B26;stop-opacity:0.2702"/>
				<stop  offset="0.8501" style="stop-color:#ED802E;stop-opacity:0.1499"/>
				<stop  offset="0.9651" style="stop-color:#F1AC38;stop-opacity:3.486657e-02"/>
				<stop  offset="1" style="stop-color:#F2BB3B;stop-opacity:0"/>
			</linearGradient>
			<polygon class="st2" points="443.9,568.6 574.9,581.4 583,559.2 			"/>
			
				<linearGradient id="SVGID_2_" gradientUnits="userSpaceOnUse" x1="50.1433" y1="478.4724" x2="162.2169" y2="487.0935" gradientTransform="matrix(0.9967 8.066985e-02 -8.066985e-02 0.9967 442.8593 91.4096)">
				<stop  offset="0" style="stop-color:#E66D34"/>
				<stop  offset="0.291" style="stop-color:#E67034;stop-opacity:0.709"/>
				<stop  offset="0.4983" style="stop-color:#E87935;stop-opacity:0.5017"/>
				<stop  offset="0.6796" style="stop-color:#EA8936;stop-opacity:0.3204"/>
				<stop  offset="0.845" style="stop-color:#EE9F38;stop-opacity:0.155"/>
				<stop  offset="1" style="stop-color:#F2BB3B;stop-opacity:0"/>
			</linearGradient>
			<polygon class="st3" points="443.9,568.6 574.9,581.4 567.8,600.6 			"/>
			
				<linearGradient id="SVGID_3_" gradientUnits="userSpaceOnUse" x1="41.7403" y1="476.9817" x2="140.2017" y2="498.7612" gradientTransform="matrix(0.9967 8.066985e-02 -8.066985e-02 0.9967 442.8593 91.4096)">
				<stop  offset="0" style="stop-color:#F2BB3B"/>
				<stop  offset="0.8535" style="stop-color:#F2BB3B;stop-opacity:0.1465"/>
				<stop  offset="1" style="stop-color:#F2BB3B;stop-opacity:0"/>
			</linearGradient>
			<polygon class="st4" points="443.9,568.6 567.8,600.6 563.1,613.3 			"/>
			
				<linearGradient id="SVGID_4_" gradientUnits="userSpaceOnUse" x1="40.6131" y1="469.3329" x2="153.5942" y2="514.7067" gradientTransform="matrix(0.9967 8.066985e-02 -8.066985e-02 0.9967 442.8593 91.4096)">
				<stop  offset="0" style="stop-color:#7EA526"/>
				<stop  offset="0.309" style="stop-color:#80A526;stop-opacity:0.691"/>
				<stop  offset="0.4828" style="stop-color:#89A728;stop-opacity:0.5172"/>
				<stop  offset="0.6232" style="stop-color:#96AA2A;stop-opacity:0.3768"/>
				<stop  offset="0.7456" style="stop-color:#AAAD2E;stop-opacity:0.2544"/>
				<stop  offset="0.8564" style="stop-color:#C4B233;stop-opacity:0.1436"/>
				<stop  offset="0.9573" style="stop-color:#E2B838;stop-opacity:4.267502e-02"/>
				<stop  offset="1" style="stop-color:#F2BB3B;stop-opacity:0"/>
			</linearGradient>
			<polygon class="st5" points="443.9,568.6 563.1,613.3 558.3,626.6 			"/>
			
				<linearGradient id="SVGID_5_" gradientUnits="userSpaceOnUse" x1="52.6922" y1="481.1517" x2="137.3118" y2="522.7444" gradientTransform="matrix(0.9967 8.066985e-02 -8.066985e-02 0.9967 442.8593 91.4096)">
				<stop  offset="0" style="stop-color:#009FE3"/>
				<stop  offset="0.2533" style="stop-color:#029FE1;stop-opacity:0.7467"/>
				<stop  offset="0.3926" style="stop-color:#0AA0DC;stop-opacity:0.6074"/>
				<stop  offset="0.5042" style="stop-color:#18A2D2;stop-opacity:0.4958"/>
				<stop  offset="0.6012" style="stop-color:#2CA4C5;stop-opacity:0.3988"/>
				<stop  offset="0.6887" style="stop-color:#45A7B3;stop-opacity:0.3113"/>
				<stop  offset="0.7694" style="stop-color:#64AB9D;stop-opacity:0.2306"/>
				<stop  offset="0.8448" style="stop-color:#89AF84;stop-opacity:0.1552"/>
				<stop  offset="0.9161" style="stop-color:#B4B466;stop-opacity:8.385307e-02"/>
				<stop  offset="0.9817" style="stop-color:#E3B945;stop-opacity:1.825905e-02"/>
				<stop  offset="1" style="stop-color:#F2BB3B;stop-opacity:0"/>
			</linearGradient>
			<polygon class="st6" points="443.9,568.6 558.3,626.6 552.7,641.8 			"/>
			
				<linearGradient id="SVGID_6_" gradientUnits="userSpaceOnUse" x1="41.7467" y1="476.8756" x2="137.4748" y2="541.5782" gradientTransform="matrix(0.9967 8.066985e-02 -8.066985e-02 0.9967 442.8593 91.4096)">
				<stop  offset="0" style="stop-color:#074388"/>
				<stop  offset="0.2267" style="stop-color:#0A4487;stop-opacity:0.7733"/>
				<stop  offset="0.3662" style="stop-color:#124984;stop-opacity:0.6338"/>
				<stop  offset="0.4823" style="stop-color:#215080;stop-opacity:0.5177"/>
				<stop  offset="0.5854" style="stop-color:#355B79;stop-opacity:0.4146"/>
				<stop  offset="0.68" style="stop-color:#506870;stop-opacity:0.32"/>
				<stop  offset="0.7683" style="stop-color:#707965;stop-opacity:0.2317"/>
				<stop  offset="0.8518" style="stop-color:#978D59;stop-opacity:0.1482"/>
				<stop  offset="0.9293" style="stop-color:#C3A34A;stop-opacity:7.068902e-02"/>
				<stop  offset="1" style="stop-color:#F2BB3B;stop-opacity:0"/>
			</linearGradient>
			<polygon class="st7" points="443.9,568.6 552.7,641.8 544.9,662.9 			"/>
		</g>
		<path class="st8" d="M458,529.5l-74.5,62.2l91.3,33.5l-16.6-95.6C458.3,529.5,458.1,529.4,458,529.5z"/>
		<g>
			<path class="st1" d="M474.9,626.3c-0.1,0-0.2,0-0.4-0.1l-91.3-33.5c-0.4-0.1-0.6-0.4-0.7-0.8c-0.1-0.4,0.1-0.8,0.4-1l74.5-62.2
				c0,0,0,0,0,0c0.3-0.3,0.8-0.3,1.2-0.2c0.4,0.1,0.7,0.5,0.8,0.9L476,625c0.1,0.4-0.1,0.8-0.4,1
				C475.4,626.2,475.2,626.3,474.9,626.3z M385.7,591.3l87.9,32.2l-16-92.2L385.7,591.3z"/>
		</g>
	</g>
	<g>
		<g>
			<g>
				<path class="st1" d="M103,701.6c-5.4,2.4-27.1,12.1-43,23.6c-0.3,0.2-0.5,0.4-0.8,0.5c-0.7,0.5-1.5-0.2-1.2-1
					c0.1-0.3,0.3-0.6,0.4-0.8c8.6-17.6,14.6-40.6,16-46.4c0.2-0.9,0.7-1.6,1.4-2.2c21.8-16.9,35.6-33.2,35.6-33.2l20.1,17
					c0,0-13.8,16.4-26.7,40.7C104.5,700.6,103.8,701.2,103,701.6z"/>
			</g>
			<g>
				<path class="st9" d="M70.9,710.2c5.6-11.8,9.8-22.7,11.1-26.3c0.3-0.8,0.8-1.5,1.5-2.1c20.5-17.9,34.3-34.3,34.3-34.3l-2.9-2.5
					c0,0-13.8,16.4-34.3,34.3c-0.7,0.6-1.2,1.3-1.5,2.1c-1.9,5-9.6,24.8-18.7,41.2L70.9,710.2z"/>
			</g>
			<g>
				<g>
					<path class="st10" d="M90.7,688.8L60,725.2c-0.3,0.2-0.5,0.4-0.8,0.5c-0.7,0.5-1.5-0.2-1.2-1c0.1-0.3,0.3-0.6,0.4-0.8
						l30.7-36.4L90.7,688.8z"/>
				</g>
			</g>
			<g>
				<circle class="st10" cx="89.9" cy="688.2" r="4.1"/>
			</g>
		</g>
		<g>
			<g>
				<g>
					<path class="st11" d="M430.1,332.4c25.1-13.4,50.9-34.3,73.1-60.6c29.7-35.3,49-74.8,53.9-109l6.8,5.7c2.9,2.4,4.1,6.3,3.2,9.9
						c-7.9,33.1-26.8,69.2-54.1,101.6c-30.9,36.7-67.7,63.1-101.9,74.8L430.1,332.4z"/>
				</g>
			</g>
			<g>
				<g>
					<g>
						<path class="st8" d="M411.1,350.6l-1.1-2.8c33.3-12.8,67.4-38.5,96-72.4c26.7-31.7,45.8-67.6,53.8-101
							c0.8-3.2-0.3-6.4-2.8-8.5l1.9-2.3c3.3,2.8,4.7,7.2,3.7,11.4c-8,33.8-27.4,70.1-54.4,102.2
							C479.4,311.6,444.8,337.6,411.1,350.6z"/>
					</g>
				</g>
			</g>
			<g>
				<path class="st12" d="M371,396.4c1.4,1.4,7.8,3.8,31.5-24.3c0.9-1.1,1.9-2.2,2.9-3.4c28.6-34,80.1-96.6,110.6-135
					c31.5-39.7,62.1-69.8,35.1-92.6c-27-22.7-51.5,12.5-85.3,50.3C433,228,380,289.3,351.4,323.2c-1,1.2-2,2.3-2.9,3.4
					c-27.3,32.4-18.5,35.3-18.2,35.4l0,0c-34.2,33.6-96.5,109.8-150.2,178.2c-2.2,2.8-4.3,5.4-6.3,8c-39.2,49.7-54.5,67.8-59,72.9
					c-1,1.1-1.4,2.6-1.2,4l0.3,2.5c0,0.4,0,0.8-0.1,1.2l-1.5,4.3l0,0l-2.3,6.7c-0.2,0.6,0,1.2,0.4,1.5l11,9.3l11,9.3
					c0.4,0.4,1.1,0.4,1.6,0.2l6.2-3.4l4-2.2c0.3-0.2,0.7-0.3,1.1-0.3l2.5-0.1c1.5-0.1,2.8-0.7,3.8-1.9c4.3-5.3,19.5-23.5,61.8-70.5
					c2.2-2.5,4.5-5,6.8-7.6c58.3-64.6,122.9-138.9,150.2-178.2C370.6,396,370.7,396.2,371,396.4L371,396.4z"/>
			</g>
			<g>
				<path class="st13" d="M122.7,641.9l-3.1,7.2l-6.3-5.3l3.1-7.2l0,0l2-4.6l0-4.8c0,0,11.9-13.2,60.8-74.3c2.1-2.6,4.2-5.2,6.4-8
					c54.3-68,116.9-144,150.2-178.2l0,0c-0.3-0.1-7.6-1.7,19.7-34.1c0.9-1.1,1.9-2.2,2.9-3.4c28.7-33.9,81.5-95.4,113.9-132.2
					c33.6-38,58.8-72.7,79.6-55.1c1.1,0.9,2.1,1.9,2.9,2.9c-20.2-11.5-44.4,21.5-76.2,57.5c-32.4,36.8-85.2,98.2-113.9,132.2
					c-1,1.2-2,2.3-2.9,3.4c-27.3,32.4-18.8,32.5-18.4,32.6l-1.3,1.5c-33.4,34.3-95.9,110.3-150.2,178.2c-2.2,2.7-4.3,5.4-6.4,8
					c-49,61.2-60.8,74.3-60.8,74.3l0,4.8L122.7,641.9L122.7,641.9z"/>
			</g>
			<g>
				<path class="st11" d="M402.5,372.1c-23.7,28.1-30.1,25.7-31.5,24.3l0,0l-0.3-0.4c-6.6-7-13.3-13.1-19.2-18.1
					c-12-10.1-21.1-15.9-21.1-15.9l0,0c-0.4-0.1-9.1-3.1,18.2-35.4c0.9-1.1,1.9-2.2,2.9-3.4c11,6.3,20.8,13.6,28.9,20.5
					c15.3,13,24.7,24.6,25.1,25C404.3,369.9,403.4,371,402.5,372.1z"/>
			</g>
			<g>
				<path class="st11" d="M148,654.2l-2.5,0.1c-0.4,0-0.8,0.1-1.1,0.3l-4,2.2l-28-23.6l1.5-4.3c0.1-0.4,0.2-0.8,0.1-1.2l-0.3-2.5
					c-0.2-1.5,0.3-2.9,1.2-4c4.5-5.1,19.8-23.2,59-72.9c0,0,10.3,5.3,21.7,14.7c6.2,5.1,12.8,11.5,18.1,18.9
					c-42.3,47-57.5,65.2-61.8,70.5C150.8,653.4,149.4,654.1,148,654.2z"/>
			</g>
			<g>
				<path class="st8" d="M342.3,370.6c-3-2.3-5.5-4.1-7.5-5.5c-0.2-2.9,2.6-10.8,20.8-32.4c0.9-1.1,1.9-2.2,2.9-3.4l0.9-1.1
					c2.3,1.5,4.6,3.1,6.8,4.6l-1.5,1.8c-1,1.2-2,2.3-2.9,3.4C340.3,363.5,340.9,369.3,342.3,370.6z"/>
			</g>
			<g>
				<path class="st1" d="M343.1,371l-0.1,0.1c-0.1-0.1-0.3-0.2-0.4-0.3C342.9,371,343.1,371,343.1,371z"/>
			</g>
			<g>
				<path class="st8" d="M122.7,641.9l-6.3-5.3l1.4-3.3c0.4-0.8,0.5-1.7,0.5-2.6l0-1.5c0-1.2,0.4-2.4,1.3-3.4
					c4.1-4.7,19.3-22.6,59.5-72.9c0.3-0.3,0.5-0.7,0.8-1c2,1.2,4.3,2.7,6.8,4.5c-0.5,0.6-0.9,1.2-1.4,1.7
					c-40.3,50.3-55.4,68.1-59.5,72.9c-0.8,0.9-1.3,2.1-1.3,3.4l0,1.5c0,0.9-0.2,1.8-0.5,2.6L122.7,641.9z"/>
			</g>
		</g>
	</g>
	<g id="XMLID_5_">
		<g>
			<g>
				<path class="st1" d="M435.5,583.2c-3.9-11.2-12.2-20.3-14.6-32.1c-2.4-12.2,2.7-24.1,6.2-35.5c2.4-7.8,4.1-16.1,2.1-24
					c-3.4-13.9-16.6-20.7-29.8-22.6c-7.7-1.1-17.2-0.4-26.6-0.6c-9.8-6.5-16-17.1-17.8-26.6c-0.8-4.1-1-8.2-0.9-12.4
					c0.1-5.6,0.8-11.2,1.5-16.8c0.8-6.2,1.5-12.5,2.3-18.8c0,0-0.7-21.1-22.6-17.6c-10,1.6-20.4,1.7-30.4-0.1
					c-1.8-0.3-3.6-0.7-5.4-1.2c-11.6-3.1-22.6-10.9-26.1-22.2c-3.2-10.4-0.5-21.6,2.1-31.9c5.3-20.9,0.4-43.1-21.1-51.9
					c-29.5-12-70.5-0.6-79.2,32.8c-3.2,12.3-7.1,23.2-18.4,30.4c-10.6,6.8-18.8,2.8-27-5.2c-10-9.6-24.9-11.8-37.7-8.3
					c-39.6,10.7-77.7,48.3-72.4,91.8c1.8,14.7,9.5,30.7,24,34.3c14.6,3.6,31.3-6.4,44.4,0.8c3.5,2,6.3,5,8.2,8.6
					c1.8,3.4,2.9,7.3,3.3,11.1c0.7,7.9-1.1,15.7-2.9,23.4c-2.9,12-5.7,24-8.6,36c-3.9,16.3-7.2,35.4,3.6,48.3
					c11.8,14.1,34.2,13,51.8,7.2c12.2-4,26.9-9.1,36.8-1.4c0.3,0.2,0.6,0.4,0.8,0.7c1.4,1.2,2.6,2.7,3.6,4.3
					c1.4,2.2,2.5,4.5,3.5,6.9c4.2,9.9,7.6,20.6,14.8,28.6c6.8,7.6,19.2,12.6,28.8,7.1c7.3-4.2,9.6-12.5,14.3-18.9
					c9.3-12.5,24.4-19.5,39.6-19.2h0c3.8,0.1,7.7,0.6,11.5,1.6c4.7,1.3,9.1,3.3,13.1,6.1c14.5,10.3,21.6,27.9,33.3,41.2
					c15.2,17.2,40.4,26.7,62.4,19.8c15-4.7,26-18.4,30.4-33.3C440.1,610.9,439.9,595.8,435.5,583.2z M383.3,579.3
					c-5.2,6.5-12.8,10.8-20.9,12.6c-18.5,4.2-39.3-5-48.5-21.6c-5-9-7.1-20-14.3-27.3c-4.8-4.8-11.7-7.5-18.5-7.3
					c-14.9,0.5-25.9,13.5-39.3,19.9c-5.7,1.4-8.5-3.2-9.9-6.6c-2.1-4.9-2.5-10.7-4.6-15.6c-2.1-4.9-5.1-9.7-9.5-12.7
					c-10.1-7-24.9-4-35.1,1.2c-10,5.1-21.1,11.3-31.8,7.9c-12.6-4-17.7-19.8-15.3-32.9c2.4-13,9.9-24.3,15.2-36.5
					c2.6-6.1,4.7-12.6,4.3-19.2c-0.4-6.6-3.6-13.3-9.4-16.5c-15.7-8.6-36.5,12.8-51.7,3.4c-5.5-3.4-8.2-9.8-9.3-16.1
					c-2.6-14,1.4-29,10.5-40c4-4.8,10.1-9.1,16.1-7.1c7.1,2.3,8.7,11.4,13.1,17.4c7.3,9.9,22.9,10.4,33.5,4.1
					c10.6-6.3,17.2-17.6,22.5-28.7c4.5-9.3,9.9-20.2,20.1-22.1c4.3-0.8,8.5,0.3,12.2,2.5v0c3.9,13-4.9,25.2-10.1,36.5
					c-9.2,20,1.8,50.1,25.4,53c14.1,1.7,27-6.5,40.7-8.7c1.7-0.3,3.5-0.5,5.3-0.5c24.1-0.7,33.5,29,31.3,48.7
					c-0.4,3.3-0.8,6.6-1,9.9c-0.4,4.7-0.6,9.4-0.3,14.1c0.1,2.1,0.3,4.2,0.7,6.2c1.7,10,6.5,19.9,15.1,25.3
					c6.8,4.3,15.2,5.4,23.3,5.5c5.9,0.1,11.8-0.3,17.6,0.9c8.3,1.8,15.6,7.1,21.2,13.6c2,2.4,3.8,4.9,5.2,7.6
					c0.9,1.8,1.7,3.8,2.2,5.8C390.8,563.9,388.4,572.8,383.3,579.3z"/>
			</g>
			<g>
				<path class="st14" d="M150.4,336.1c-2.8,1.3-10.2,3.4-13.3,2.9c-12.3-1.9-22.4-9.1-35.2-5.7c-16,4.3-29.9,17-41.3,28.4
					c-11.3,11.3-18.4,26.7-19.3,42.6c-0.6,11.4,3.6,24.7,14.3,28.5c5.2,1.8,11,1,16.4,2.4c5,1.3,10.2,5.3,12.4,9.8
					c-12.5-4-27.5,4-40.8,0.7c-14.5-3.6-22.2-19.6-24-34.3c-5.4-43.5,32.8-81.1,72.4-91.8c12.8-3.5,27.8-1.3,37.7,8.3
					C135.1,333.1,144.6,336,150.4,336.1z"/>
			</g>
			<g>
				<path class="st14" d="M436.8,623.5c-3,15.4-15.2,29.6-30.8,34.5c-22,7-47.2-2.6-62.4-19.8c-10.6-11.9-17.3-27.3-29-37.8
					c1.4-0.8,3.4-1.1,6.4-0.8c5,0.5,9.8,2.2,14.3,4.3c2.8,1.3,9.8,7.8,12.5,7.8c11,8.6,20.5,19.3,32.9,25.7
					c11.9,6.2,26.6,7.9,38.9,2.4C427.1,636.8,433.3,630.7,436.8,623.5z"/>
			</g>
			<g>
				<path class="st14" d="M275.5,321.8c-2.5,9.7-5,20.3-2.5,30.2c-5-4-8.9-9.4-10.8-15.6c-2.9-8.8-1.9-18.4-2.5-27.7
					c-0.7-9.3-3.6-19.4-11.6-24.1c0.4,6.2-0.7,12.5-3.2,18.3c-2.4-9.4-12.2-15.7-21.9-16.1c-9.7-0.4-19.1,4-26.8,9.9
					c-7.7,5.9-14.2,13.3-21.2,20c-1,1-4.9,5.1-7.9,6.4c4-5.9,6.2-12.9,8.2-20.4c8.7-33.4,49.7-44.8,79.2-32.8
					C275.9,278.7,280.8,300.9,275.5,321.8z"/>
			</g>
			<g>
				<path class="st14" d="M205.1,413.1c0,0-4.4-16.6,1.1-27.8c4.8-9.8,11.5-17.9,11.5-17.9s4.8,0.5,8.3,8.2c0,0,2.4-25.4-12.4-35.7
					c0,0,1.7,9.6-4.2,21.5S192,388.6,205.1,413.1z"/>
			</g>
			<g>
				<path class="st14" d="M241,556.9c0,0-17.5,9.9-38-0.9c0,0,13,0.7,17.8-1.8c0,0,2.5-28.5-9.8-35.6c-0.1,0-0.1-0.1-0.2-0.1
					c2.4,0.7,4.7,1.7,6.8,3.1c4.4,3,7.4,7.8,9.5,12.7c2.1,4.9,2.5,10.7,4.6,15.6c1.3,3.1,3.7,7.2,8.5,6.8
					C240.5,556.9,240.7,556.9,241,556.9z"/>
			</g>
			<g>
				<path class="st8" d="M131,433.4c4.1-1,8.3-1.1,11.8,1.2c2.9,2,4,5.8,3.7,9.2c-0.3,3.5-1.9,6.7-3.5,9.7
					c-4.4,8.3-9.5,16.2-13,24.9c-3.5,8.7-5.5,18.4-3.3,27.5c-7.4-12.9-8.4-29.2-2.7-42.8c1.5-3.7,3.1-7.6,3.1-11.7
					c0-2.9-1-6-3.4-7.8c-3-2.2-7.2-1.7-10.9-1.6c-4.1,0.1-10,0.2-12.2-1.3c6.8,0.9,11.6-0.9,16.1-2.4
					C121.4,436.7,126.1,434.6,131,433.4z"/>
			</g>
			<g>
				<path class="st8" d="M128.4,363.4c2.7,3.2,3.1,7.4,6,10.4c5.4,5.7,14.9,6.3,21.1,1.4c3.1-2.4,5.2-5.9,7.1-9.4
					c5.1-9.2,10.4-18.3,16.1-28.2c-6.7,7.7-14.4,15.7-19.8,21.3c-5,5.1-11.9,8.7-20.6,2.9c-4.4-2.9-12.7-5-18.3-4.6
					C125.6,360.6,125.9,360.4,128.4,363.4z"/>
			</g>
			<g>
				<path class="st8" d="M245.4,564.9c7.5-4,14.3-9.4,22-13.2c7.6-3.8,17.4-6,24.3-0.9c3.5,2.6,5.7,6.6,7.5,10.5
					c2.2,4.9,4.1,10,5.7,15.2c-5.3-8.8-16.9-12-27.2-11.1c-10.3,0.9-20,5-30.1,7.4c-7.4,1.8-12.4,2.7-20,1
					c-3.7-0.8-8.6-3.3-10.7-6.5C225.8,570.5,237.1,569.4,245.4,564.9z"/>
			</g>
			<g>
				<path class="st8" d="M410.7,611.3c4.3-3.8,6.5-10,5.5-15.8c-0.9-5.4-4.2-9.9-6.7-14.7c-7.6-14.9-6.5-34.3,2.7-48.4
					c-4,10.4-3.6,22.5,0.9,32.6c3.5,7.9,9.3,14.3,13.7,21.7c4.3,7.4,7.1,16.8,3.7,24.8c-2.9,6.9-9.9,11.3-17,11.6
					c-6.1,0.2-14.4-2.6-17.6-8.1C401.1,615.3,406.3,615.1,410.7,611.3z"/>
			</g>
			<g>
				<path class="st14" d="M386.6,550.1c-1.4-2.7-3.2-5.3-5.2-7.6c-5.5-6.5-12.8-11.8-21.2-13.6c-5.7-1.3-11.7-0.9-17.6-0.9
					c-8.1-0.1-16.5-1.1-23.3-5.5c-8.5-5.4-13.4-15.3-15.1-25.3c-1.1-6.7-1-13.5-0.4-20.3c1.7-3.8,3.5-7.6,5.1-11.5
					c-1,7.1,0.1,14.8,4.6,20.4c6.7,8.2,18.4,9.6,28.8,11.8c9,1.8,17.9,4.7,25.1,10.3c8.4,6.5,13.9,16.2,16.6,26.4
					C385.6,539.4,386.4,544.7,386.6,550.1z"/>
			</g>
			<g>
				<path class="st14" d="M180.3,578.7c-9.9-7.7-24.6-2.5-36.8,1.4c-17.6,5.8-40,6.9-51.8-7.2c-10.8-12.9-7.5-32-3.6-48.3
					c2.9-12,5.7-24,8.6-36c1.8-7.7,3.7-15.5,2.9-23.4c-0.4-3.8-1.4-7.7-3.3-11.1c4.1,1.1,9.8,15.8,10.5,18.6
					c2.1,8.4,2,17.2,1.9,25.9c-0.1,9.6-0.2,19.3-0.2,28.9c-0.1,7-0.1,14.1,2.2,20.7c3.8,11.2,14.6,19.6,26.4,20.6
					c12,1.1,25.2-4.7,35.6,1.4C175.9,572.3,178.4,575.3,180.3,578.7z"/>
			</g>
			<g>
				<path class="st14" d="M285.8,588.2c-15.3-0.3-30.3,6.7-39.6,19.2c-4.7,6.4-7,14.7-14.3,18.9c-9.6,5.5-22,0.5-28.8-7.1
					c-7.3-8-10.6-18.7-14.8-28.6c-1-2.4-2.1-4.8-3.5-6.9c0.6,0,1.1,0.1,1.2,0.1c4,0.9,7,2.2,10.5,4.5c5.5,3.7,9.9,8.8,15.7,12
					c6.8,3.8,15.2,4.6,22.6,2c7.9-2.7,14.2-8.9,21.7-12.6C265.4,585.3,276.3,584.9,285.8,588.2z"/>
			</g>
			<g>
				<path class="st14" d="M357.9,393.9c-0.8,6.2-1.5,12.5-2.3,18.8c-0.7,5.6-1.4,11.2-1.5,16.8l-50.5,61.5
					c-0.3-4.7-0.1-9.4,0.3-14.1c0.3-3.3,0.7-6.6,1-9.9c2.3-19.6-7.2-49.3-31.3-48.7c-1.8,0-3.5,0.2-5.3,0.5l36.5-42.7
					c10,1.9,20.3,1.7,30.4,0.1C357.2,372.8,357.9,393.9,357.9,393.9z"/>
			</g>
			<g>
				<g>
					<g>
						<path class="st15" d="M387,552.1c-2.2-4.9-5.7-9.2-9.7-12.8c-3.9-3.7-8.5-6.7-13.5-8.5c-5-1.8-10.5-2-15.9-1.9
							c-2.7,0-5.5,0.1-8.3,0c-2.8-0.1-5.6-0.3-8.3-0.9c-5.5-1-11-3.1-15.3-6.8c-4.4-3.6-7.5-8.5-9.7-13.6
							c-2.1-5.2-3.2-10.7-3.5-16.3c-0.3-5.5,0.1-11.1,0.7-16.5l1.1,0.1c0.7,2.8,1.3,5.6,1.9,8.3c0.6,2.7,1.3,5.3,2,7.8
							c1.4,5,3.3,9.5,5.6,13.4c0.3,0.5,0.6,1,0.9,1.4c0.3,0.5,0.6,0.9,1,1.3c0.6,0.9,1.3,1.7,2,2.5c1.4,1.5,2.8,2.9,4.4,3.9
							c1.5,1,3.1,1.9,4.9,2.5c0.9,0.3,1.8,0.6,2.8,0.9c1,0.2,2,0.5,3.1,0.7c2.1,0.4,4.4,0.7,6.8,0.8c1.2,0.1,2.4,0.2,3.7,0.2
							c1.3,0.1,2.6,0.1,4.1,0.2c2.8,0.2,5.9,0.3,9.1,0.9c1.6,0.3,3.3,0.6,4.9,1.2c1.6,0.5,3.3,1.1,4.8,1.9c6.2,2.9,11,7.4,14.6,12.3
							c1.8,2.5,3.3,5.1,4.5,7.9c0.6,1.4,1.1,2.8,1.5,4.3c0.3,1.5,0.7,2.9,0.7,4.4L387,552.1z"/>
					</g>
					<g>
						<path class="st15" d="M273.7,418.8c-3.9,0.2-7.8,1.1-11.6,2.2c-3.8,1.1-7.5,2.5-11.3,3.8c-3.8,1.3-7.6,2.5-11.6,3.3
							c-4,0.8-8.1,1-12.2,0.4c-4.1-0.6-8-2.1-11.5-4.3c-3.5-2.2-6.5-5.1-8.9-8.4c-2.4-3.3-4.3-7-5.6-10.8c-1.3-3.8-2-7.9-2.3-11.9
							l1.1-0.1c0.6,0.9,1.1,1.9,1.7,2.7c0.6,0.9,1.1,1.7,1.6,2.6l1.6,2.4l1.7,2.3c2.3,2.9,4.6,5.5,7,7.6c0.6,0.5,1.2,1,1.8,1.5
							c0.6,0.5,1.2,0.9,1.8,1.3c0.6,0.4,1.3,0.7,1.9,1.1c0.6,0.4,1.3,0.6,1.9,1c2.5,1.2,5,1.9,7.7,2.3c2.7,0.4,5.6,0.4,8.9,0.1
							c0.8,0,1.7-0.2,2.5-0.3c0.9-0.1,1.8-0.2,2.6-0.3l5.6-0.8c3.9-0.6,8.1-1.1,12.5-1.2c1.1,0,2.2,0,3.3,0.1
							c1.1,0.1,2.2,0.2,3.3,0.4c1.1,0.2,2.2,0.4,3.3,0.7c1.1,0.3,2.1,0.7,3.2,1.2L273.7,418.8z"/>
					</g>
					<g>
						<path class="st15" d="M66.6,444.3c-4.3,0.7-8.7,1.5-13.2,1.8c-2.2,0.1-4.5,0.1-6.7-0.1c-2.3-0.2-4.5-0.9-6.6-1.7
							c-4.2-1.7-7.9-4.6-10.8-8.1c-2.9-3.5-5.1-7.4-6.8-11.6c-1.7-4.2-2.8-8.5-3.4-13c-0.6-4.4-0.8-8.9-0.6-13.4
							c0.5-8.9,2.7-17.8,6.5-25.9c3.7-8.1,8.8-15.6,14.7-22.2c5.9-6.7,12.8-12.5,20.1-17.5c3.7-2.5,7.5-4.7,11.5-6.8
							c4-2,8-3.8,12.2-5.3c1-0.4,2.1-0.7,3.2-1.1l1.6-0.5l1.6-0.5c1.1-0.3,2.1-0.6,3.2-0.9c1.1-0.3,2.2-0.5,3.3-0.6
							c4.4-0.7,8.9-0.7,13.4-0.1l-0.1,1.1c-1.1,0.1-2.2,0.2-3.3,0.4c-1.1,0.2-2.2,0.4-3.2,0.6c-2.1,0.4-4.2,1-6.1,1.7
							c-1,0.4-1.9,0.8-2.9,1.1c-0.9,0.4-1.9,0.9-2.9,1.3l-1.5,0.7l-1.4,0.7c-1,0.5-1.9,0.9-2.8,1.5c-3.8,2-7.4,4.1-10.8,6.4
							c-0.4,0.3-0.9,0.6-1.3,0.9c-0.4,0.3-0.9,0.6-1.3,0.9c-0.9,0.6-1.7,1.2-2.5,1.8c-0.8,0.6-1.7,1.2-2.5,1.9
							c-0.8,0.7-1.6,1.3-2.4,1.9c-1.6,1.3-3.2,2.6-4.7,4c-0.4,0.3-0.8,0.7-1.2,1l-1.1,1c-0.7,0.7-1.5,1.4-2.2,2.1
							c-2.9,2.9-5.6,5.8-8.2,8.9c-2.5,3.1-4.9,6.3-7,9.7c-2.1,3.3-4,6.8-5.6,10.3c-1.7,3.5-3,7.1-3.9,10.8
							c-1.1,3.7-1.7,7.4-2.1,11.2c-0.4,3.8-0.3,7.7-0.1,11.5l0.1,1.4l0.2,1.4c0.1,0.9,0.3,1.9,0.4,2.8c0.1,0.9,0.4,1.9,0.6,2.8
							c0.2,0.9,0.5,1.8,0.7,2.7c2.2,7.2,5.8,13.8,11.9,17.5c0.2,0.1,0.4,0.3,0.6,0.4l0.6,0.3l1.2,0.6c0.4,0.2,0.8,0.3,1.3,0.5
							c0.4,0.1,0.9,0.3,1.3,0.4c1.8,0.6,3.8,0.9,5.9,1.2c2.1,0.3,4.3,0.4,6.5,0.5c2.2,0.1,4.5,0.2,6.7,0.3L66.6,444.3z"/>
					</g>
					<g>
						<path class="st15" d="M172.8,575.8c-3.6-0.7-7.4-0.6-11.1,0c-3.7,0.6-7.3,1.6-10.9,2.7c-1.8,0.6-3.6,1.1-5.4,1.7
							c-1.8,0.6-3.6,1.2-5.4,1.7c-3.7,1-7.4,1.9-11.2,2.4c-3.8,0.5-7.6,0.8-11.5,0.6c-3.8-0.2-7.7-0.7-11.4-1.8
							c-3.7-1.1-7.3-2.8-10.4-5.2c-3.2-2.3-5.7-5.4-7.7-8.8c-1.9-3.4-3.2-7.2-3.8-11c-0.7-3.8-0.8-7.7-0.6-11.5
							c0.4-7.7,2-15.1,3.8-22.5l5.4-22l2.8-11c0.9-3.7,1.7-7.3,2.6-11l1,0.2c0.1,1.9,0.1,3.9,0.1,5.8l-0.1,2.9l-0.1,2.9
							c-0.1,3.9-0.4,7.7-0.8,11.5c-0.7,7.6-1.6,15.2-2.7,22.7c-0.3,1.8-0.5,3.7-0.8,5.5c-0.2,1.8-0.5,3.6-0.6,5.3
							c-0.3,3.5-0.6,6.9-0.6,10.2c0,3.3,0.2,6.4,0.9,9.2c0.6,2.8,1.5,5.4,2.7,7.5c1.2,2.2,2.8,4.2,4.8,5.7c1,0.8,2,1.5,3.2,2.2
							c1.2,0.7,2.5,1.2,3.8,1.7c2.7,1,5.7,1.6,8.9,2c1.6,0.2,3.2,0.3,4.9,0.4c1.7,0.1,3.3,0.1,5,0c1.7-0.1,3.4-0.2,5.2-0.3
							c1.7-0.2,3.5-0.4,5.2-0.6c1.8-0.2,3.4-0.6,5.4-0.9c1.9-0.3,3.8-0.7,5.8-1c3.9-0.6,7.9-1,12-0.9c2,0.1,4.1,0.2,6.1,0.6
							c2,0.5,4,1,5.8,1.9L172.8,575.8z"/>
					</g>
					<g>
						<path class="st15" d="M246.6,607.7c-2.1,3-3.6,6.3-5.5,9.5c-1.8,3.2-4,6.4-7.2,8.8c-0.8,0.6-1.6,1.1-2.5,1.5
							c-0.4,0.2-0.9,0.5-1.3,0.6l-1.4,0.5c-1.9,0.6-3.8,0.9-5.7,0.9c-1,0.1-1.9-0.1-2.9-0.1c-0.9-0.2-1.9-0.3-2.8-0.5
							c-1.9-0.4-3.7-1.1-5.4-1.9c-3.4-1.7-6.6-3.9-9.2-6.7c-0.7-0.7-1.2-1.4-1.9-2.1c-0.6-0.8-1.2-1.5-1.7-2.3c-1.1-1.5-2-3.1-3-4.8
							c-1.8-3.3-3.3-6.7-4.6-10.1c-1.3-3.4-2.6-6.9-3.9-10.3l1-0.4c1.6,1.3,3.1,2.7,4.4,4.2c1.4,1.4,2.6,2.9,3.8,4.3
							c2.4,2.9,4.6,5.7,6.8,8.2c0.5,0.6,1.1,1.2,1.6,1.8c0.3,0.3,0.5,0.6,0.8,0.9c0.3,0.3,0.5,0.5,0.8,0.8c0.5,0.6,1.1,1,1.6,1.6
							l0.8,0.7l0.4,0.4l0.4,0.3c1,0.8,2,1.5,3.1,2.2c0.6,0.3,1.1,0.7,1.6,1c0.5,0.3,1.1,0.6,1.7,0.9c0.3,0.1,0.6,0.2,0.8,0.4
							c0.3,0.1,0.6,0.3,0.8,0.3l0.8,0.3c0.3,0.1,0.5,0.2,0.8,0.3c0.5,0.2,1.1,0.3,1.6,0.5c0.5,0.1,1,0.2,1.5,0.3
							c1,0.2,1.9,0.1,2.9,0.2c0.2,0,0.5,0,0.7-0.1c0.3,0,0.5-0.1,0.7-0.1c0.5,0,1-0.2,1.5-0.4l0.8-0.3l0.8-0.4l0.9-0.5
							c0.3-0.2,0.6-0.4,0.9-0.6c1.2-0.8,2.5-1.9,3.9-3.1c1.4-1.2,2.8-2.5,4.4-3.8c1.6-1.3,3.3-2.5,5.2-3.4L246.6,607.7z"/>
					</g>
					<g>
						<path class="st15" d="M439.1,612.5c-0.3,3.4-0.9,6.7-1.7,10c-0.9,3.3-2,6.5-3.4,9.6c-2.9,6.1-6.9,11.8-11.9,16.4
							c-2.5,2.3-5.3,4.3-8.3,6c-0.8,0.4-1.5,0.8-2.3,1.2l-2.3,1.1l-2.4,0.9c-0.8,0.3-1.6,0.5-2.5,0.7c-0.8,0.2-1.6,0.5-2.5,0.7
							l-2.5,0.5c-1.7,0.4-3.4,0.4-5.1,0.6c-0.8,0.1-1.7,0.1-2.6,0.1l-2.6,0l-2.6-0.2c-0.8-0.1-1.7-0.1-2.5-0.2
							c-13.5-1.8-26.3-8-36.2-17.2l-1.9-1.7l-1.7-1.9c-1.2-1.2-2.3-2.5-3.3-3.8c-2.1-2.6-4.1-5.4-6-8.1c-3.7-5.6-7.2-11.3-11.2-16.7
							l0.9-0.6c2.8,2.1,5.4,4.4,7.9,6.8c2.5,2.4,4.8,4.8,7.2,7.2c2.3,2.4,4.6,4.7,6.9,6.8c1.2,1.1,2.3,2.1,3.5,3l1.7,1.4
							c0.6,0.4,1.2,0.9,1.8,1.3c9.6,7,20.7,11.5,31.8,13c0.7,0.1,1.4,0.1,2.1,0.2l2.1,0.2l2.1,0c0.7,0,1.4,0,2.1,0
							c1.4-0.1,2.7-0.1,4.1-0.3l2-0.3l2-0.4l1-0.2c0.3-0.1,0.7-0.1,1-0.2l1.9-0.5c0.6-0.2,1.2-0.5,1.8-0.7c0.6-0.2,1.2-0.5,1.8-0.8
							c0.6-0.2,1.2-0.6,1.8-0.9c0.3-0.2,0.6-0.3,0.9-0.5c0.3-0.2,0.6-0.4,0.9-0.5c0.6-0.3,1.2-0.7,1.8-1.1c0.6-0.4,1.2-0.7,1.7-1.2
							c4.6-3.3,8.8-7.6,12.5-12.6c1.8-2.5,3.4-5.2,5-8.1c1.5-2.9,2.9-5.9,4.2-9.1L439.1,612.5z"/>
					</g>
					<g>
						<path class="st15" d="M174.7,301.6c1.4-5.6,3.8-11.1,7.2-15.9l0.6-0.9l0.7-0.9c0.5-0.6,0.9-1.1,1.4-1.7c1-1.1,2-2.2,3.1-3.2
							c1-1,2.2-2,3.3-2.9c1.2-0.9,2.3-1.8,3.6-2.6c9.8-6.5,21.4-9.9,33.1-10.4c5.9-0.1,11.7,0.4,17.4,1.7c2.8,0.7,5.7,1.5,8.4,2.6
							c1.4,0.5,2.7,1.1,4,1.7c1.3,0.7,2.6,1.4,3.8,2.2c5,3.2,9.1,7.7,11.9,12.9c2.8,5.2,4.1,11,4.6,16.8l-1.1,0.1
							c-2.5-5.5-5.1-10.4-8.6-14.2c-3.4-3.8-7.2-6.6-11.4-8.5c-1-0.5-2.1-0.9-3.2-1.3c-1.1-0.3-2.2-0.7-3.4-1
							c-2.4-0.6-4.8-1.2-7.3-1.6c-2.4-0.4-4.9-0.7-7.4-0.8c-2.5-0.2-5-0.2-7.4-0.1c-9.9,0.4-19.8,2.5-28.7,6.8
							c-1.1,0.5-2.2,1.1-3.3,1.7c-1.1,0.7-2.2,1.3-3.2,2c-2.1,1.4-4.2,2.9-6.1,4.7c-2,1.7-3.8,3.7-5.7,5.8c-0.4,0.5-0.9,1.1-1.3,1.6
							c-0.4,0.6-0.8,1.1-1.3,1.7c-1,1.1-1.6,2.4-2.6,3.6L174.7,301.6z"/>
					</g>
				</g>
			</g>
			<g>
				<path class="st8" d="M407.4,512.2c1.3-5.6,0.9-12-2.2-16.5c-3-4.3-7.9-6.1-12.7-7.3c-15.7-3.9-32.8-3.3-46.6-12.4
					c17.9,7,38.1-2.7,56.8,1c8.4,1.7,17.3,7.6,18.4,17.4c0.6,5.2-1.3,10.6-4.1,14.9c-2.8,4.3-6.5,7.7-10.2,11.1
					c-1.5,1.3-2.9,2.7-4.4,4C404.4,520.6,406.3,516.6,407.4,512.2z"/>
			</g>
			<g>
				<path class="st14" d="M339,456.8l14.8,2c0,0-13.7-12.5,1-41.3c0,0-7.1,32.7,18,50.9C372.8,468.4,347.8,470.2,339,456.8z"/>
			</g>
			<g>
				<path class="st8" d="M164.4,536.2c6-2,11.8-6.5,17.7-8.7c5.8-2.2,12.3-3.7,18.6-2.7c6.3,1.1,12.1,5.3,12.9,10.8
					c-4.3-3.4-11-3.4-16.5-1.7s-10.3,4.7-15.5,7c-5.3,2.3-11.1,3.7-17.1,4.2c-5.4,0.4-11.1,0-16.1-1.9c-3.1-1.2-7.2-3.1-9.3-5.4
					c-1.3-1.4-2.4-2.4-3.5-4.4C144.1,539.1,154.9,539.4,164.4,536.2z"/>
			</g>
			<g>
				<path class="st8" d="M246.7,395.8c12-3.1,25.5-2.6,36.2,3.6c-9.8-2.7-21.2-1.3-30.3,3c-4.3,2-7.9,4.2-12.6,5.4
					c-4.3,1.1-9.9,2.2-14.2,1.4c-4.1-0.7-7.1-1.6-10.2-4.3c-3.6-3-4.9-8.4-3.8-12.7c0.6-2.4,1.8-4.8,3-7c0.9-1.6,3.2-4.5,4.2-5.9
					c-0.6,3.6-1.3,7.2-0.7,10.8C220.8,404.1,237.1,398.3,246.7,395.8z"/>
			</g>
		</g>
		<g>
			<g>
				<path class="st1" d="M239.6,556.9c-3.8,0-6.7-2.5-8.9-7.5c-1.1-2.5-1.7-5.3-2.3-7.9c-0.6-2.6-1.2-5.3-2.3-7.7
					c-2.5-5.7-5.4-9.8-9.1-12.3c-9.8-6.8-24.5-3.6-34,1.3l-1.8,0.9c-9.5,4.9-20.4,10.4-30.9,7.1c-13.2-4.2-18.5-20.6-16.1-34.1
					c1.6-9.1,5.8-17.4,9.9-25.5c1.8-3.7,3.7-7.4,5.4-11.2c3.2-7.5,4.5-13.2,4.2-18.7c-0.4-6.9-3.8-12.9-8.8-15.6
					c-7.4-4-15.9-1.1-24.9,2c-9.2,3.2-18.8,6.4-26.9,1.4c-6.3-3.9-8.8-11.3-9.8-16.8c-2.6-14.3,1.4-29.6,10.7-40.8
					c2-2.4,9.2-10.1,17.2-7.5c5.2,1.7,7.6,6.6,10,11.4c1.1,2.2,2.3,4.5,3.7,6.4c7.3,9.9,22.3,9.7,32.1,3.8
					c10.6-6.3,17.1-17.8,22.1-28.3c4.2-8.7,9.9-20.6,20.8-22.7c4.3-0.8,8.8,0.1,13,2.7c4,2.4,7.4,6.1,9.6,10.4
					c4.2,8.3,4.7,17.9,5,26.4c0,0.6-0.4,1.1-1,1.1c-0.6,0-1.1-0.4-1.1-1c-0.4-8.3-0.8-17.7-4.8-25.5c-2-4-5.2-7.4-8.8-9.6
					c-3.7-2.3-7.7-3.1-11.5-2.4c-9.9,1.8-15.1,12.8-19.3,21.5c-5.1,10.7-11.9,22.6-22.9,29.2c-10.6,6.3-26.9,6.4-34.9-4.4
					c-1.5-2-2.7-4.4-3.9-6.7c-2.3-4.6-4.4-8.9-8.8-10.3c-6.7-2.2-13.1,4.6-14.9,6.8c-8.9,10.7-12.8,25.3-10.2,39.1
					c0.9,5.1,3.2,11.9,8.8,15.4c7.3,4.5,15.9,1.5,25.1-1.6c9.1-3.1,18.4-6.3,26.6-1.8c5.7,3.1,9.5,9.8,9.9,17.4
					c0.4,7.4-2.1,14.4-4.4,19.6c-1.6,3.8-3.6,7.6-5.4,11.3c-4,7.9-8.1,16.2-9.7,24.9c-2.3,12.5,2.6,27.8,14.6,31.6
					c9.7,3.1,19.6-2,29.3-6.9l1.8-0.9c10.1-5.1,25.6-8.5,36.2-1.1c4,2.8,7.2,7.1,9.8,13.2c1.1,2.6,1.8,5.3,2.4,8
					c0.6,2.6,1.2,5.2,2.2,7.6c2.1,5,4.9,6.9,8.7,6c0.6-0.1,1.1,0.2,1.3,0.8c0.1,0.6-0.2,1.1-0.8,1.3
					C241.1,556.8,240.4,556.9,239.6,556.9z"/>
			</g>
			<g>
				<path class="st1" d="M353.3,594c-16.2,0-32.5-9-40.4-23.2c-1.9-3.3-3.3-6.9-4.7-10.4c-2.5-6.2-4.9-12.2-9.5-16.7
					c-4.6-4.6-11.2-7.2-17.7-7c-9.3,0.3-16.9,5.6-25,11.2c-4.4,3.1-9,6.2-13.8,8.5c-0.2,0.1-0.3,0.2-0.5,0.2l-0.2,0.1
					c-12.3,5.6-26.9,5.2-38.9-0.9c-0.5-0.3-0.7-0.9-0.5-1.4c0.3-0.5,0.9-0.7,1.4-0.5c11.3,5.8,25.5,6.1,37,0.9l0.2-0.1
					c0.2-0.1,0.3-0.1,0.5-0.2c4.7-2.2,9.2-5.3,13.6-8.4c8-5.6,16.3-11.3,26.2-11.6c7.1-0.2,14.3,2.6,19.3,7.6
					c4.8,4.8,7.4,11.2,9.9,17.4c1.4,3.4,2.8,6.9,4.6,10.1c9,16.1,29.4,25.2,47.4,21.1c8.4-1.9,15.6-6.2,20.3-12.2
					c5.1-6.5,7.2-15.1,5.4-22.5c-1.1-4.3-3.5-8.6-7.2-13c-4.2-4.9-11.1-11.2-20.6-13.2c-4.4-1-9-0.9-13.5-0.9c-1.3,0-2.5,0-3.8,0
					c-6.5-0.1-16.1-0.7-23.9-5.7c-8-5.1-13.6-14.5-15.5-26c-1.7-10.2-0.5-20.5,0.7-30.5c1.3-11.6-1.5-28.8-11-39.2
					c-5.2-5.7-11.7-8.5-19.1-8.3c-6.9,0.2-13.7,2.5-20.3,4.7c-8.3,2.8-16.8,5.6-25.8,4.5c-10.1-1.2-18.6-7.3-24.1-17.1
					c-6.4-11.5-7.3-26.2-2.2-37.4c1-2.2,2.2-4.4,3.4-6.8c4.8-9.3,9.7-18.9,6.7-28.9c-0.2-0.6,0.2-1.2,0.7-1.3
					c0.6-0.2,1.2,0.2,1.3,0.7c3.3,10.9-1.9,20.9-6.8,30.5c-1.2,2.3-2.3,4.5-3.3,6.7c-4.8,10.6-4,24.5,2.1,35.4
					c5.1,9.2,13.1,14.9,22.5,16c8.5,1,16.4-1.6,24.8-4.4c6.7-2.3,13.7-4.6,20.9-4.8c8.1-0.2,15.1,2.8,20.8,9
					c10,10.9,13,28.8,11.6,40.9c-1.1,9.8-2.3,20-0.7,29.9c1.8,10.9,7.1,19.8,14.6,24.6c7.3,4.6,16.5,5.3,22.8,5.3c1.3,0,2.5,0,3.8,0
					c4.6,0,9.4-0.1,14,1c10,2.2,17.4,8.8,21.8,13.9c3.9,4.6,6.5,9.3,7.6,13.9c2,8-0.2,17.3-5.8,24.3c-5.1,6.4-12.7,11-21.5,13
					C359.5,593.6,356.4,594,353.3,594z"/>
			</g>
			<g>
				<path class="st1" d="M372.8,469.4C372.8,469.4,372.8,469.4,372.8,469.4c-13.2-0.2-26.5-1.7-34.6-12c-0.4-0.5-0.3-1.1,0.2-1.5
					c0.5-0.4,1.1-0.3,1.5,0.2c7.6,9.6,20.3,11.1,33,11.2c0.6,0,1.1,0.5,1.1,1.1C373.9,469,373.4,469.4,372.8,469.4z"/>
			</g>
			<g>
				<path class="st1" d="M390.9,660.3c-6.2,0-12.6-1.1-18.9-3.2c-11.1-3.7-21.4-10.5-29.1-19.2c-4.5-5.1-8.4-10.9-12.1-16.5
					c-6-9-12.2-18.2-21-24.5c-3.8-2.7-8.1-4.7-12.7-5.9c-18.5-5-38.6,1.9-50,17.2c-1.5,2-2.8,4.3-4,6.5c-2.7,4.7-5.4,9.7-10.6,12.6
					c-10.1,5.8-23,0.5-30.1-7.3c-6-6.7-9.4-15.1-12.7-23.3c-0.8-1.9-1.5-3.8-2.3-5.7c-1.6-3.7-3.5-7.9-6.8-10.8
					c-9.1-8-23.2-3.4-35.6,0.7l-1,0.3c-8.6,2.8-37.8,10.6-53-7.5c-10.7-12.7-8.2-31.2-3.9-49.2l8.6-36c1.8-7.5,3.6-15.2,2.9-23
					c-0.8-8.5-4.9-15.5-10.9-18.9c-7-3.9-15-2.6-23.5-1.2c-6.8,1.1-13.9,2.2-20.6,0.5c-15.5-3.9-23-20.7-24.8-35.2
					c-2.5-20.3,4.4-41.3,19.6-59c13.7-16.1,33.3-28.5,53.6-34c14.4-3.9,29.2-0.6,38.8,8.6c9.5,9.2,16.9,10.6,25.7,5.1
					c11.2-7.2,14.9-18.2,17.9-29.8c3.6-13.8,12.7-24.7,26.3-31.5c16.4-8.2,37.3-9,54.4-2.1c23.5,9.6,26.6,33.7,21.7,53.1
					c-2.4,9.3-5.3,20.9-2.1,31.3c3.7,11.9,15.5,18.9,25.3,21.5c10.8,2.9,22.7,3.3,35.3,1.3c7-1.1,12.6,0.1,16.8,3.5
					c6.7,5.5,7,14.7,7.1,15.1c0,0.1,0,0.1,0,0.2l-2.3,18.8c-1.2,9.5-2.4,19.4-0.6,28.8c1.9,10.1,8.4,19.9,17.1,25.8
					c2.8,0,5.6,0,8.3,0c6.5-0.1,12.7-0.2,18.1,0.6c7.8,1.1,26.3,5.6,30.7,23.4c2.1,8.6,0,17.7-2.2,24.6c-0.6,1.8-1.2,3.7-1.8,5.5
					c-3.1,9.6-6.4,19.5-4.4,29.5c1.3,6.6,4.7,12.6,7.9,18.3c2.4,4.3,5,8.8,6.7,13.7c4.4,12.6,4.8,28,1,41.1
					c-4.8,16.4-16.7,29.4-31.1,34C401.4,659.5,396.2,660.3,390.9,660.3z M284.8,587.1c4.3,0,8.6,0.6,12.8,1.7
					c4.9,1.3,9.4,3.4,13.4,6.3c9.2,6.5,15.5,15.9,21.5,25.1c3.7,5.6,7.5,11.3,12,16.3c15.8,17.9,41,25.9,61.3,19.5
					c13.7-4.3,25.1-16.8,29.7-32.5c3.7-12.7,3.4-27.6-0.9-39.8c-1.6-4.7-4.1-9.1-6.5-13.3c-3.3-5.9-6.7-12-8.1-18.9
					c-2.1-10.5,1.2-20.7,4.4-30.6c0.6-1.8,1.2-3.7,1.7-5.5c2-6.7,4.1-15.3,2.1-23.5c-4.1-16.6-21.6-20.8-28.9-21.8
					c-5.3-0.7-11.3-0.7-17.8-0.6c-2.8,0-5.8,0.1-8.7,0c-0.2,0-0.4-0.1-0.6-0.2C363,463.2,356,452.7,354,442
					c-1.8-9.7-0.6-19.7,0.6-29.5l2.3-18.7c0-0.9-0.7-8.8-6.3-13.5c-3.7-3-8.7-4.1-15.1-3.1c-13,2-25.1,1.6-36.2-1.4
					c-13.3-3.5-23.6-12.3-26.8-22.9c-3.4-11-0.4-22.9,2-32.5c4.7-18.5,1.8-41.6-20.4-50.6c-16.5-6.7-36.7-6-52.6,2
					c-9.1,4.5-20.8,13.5-25.2,30.1c-3,11.5-7,23.4-18.8,31c-12.1,7.7-21.1,1.6-28.3-5.3c-9-8.7-23-11.8-36.7-8.1
					c-39.4,10.7-76.9,47.5-71.6,90.7c1.6,13.1,8.7,29.8,23.2,33.4c6.2,1.6,13.1,0.5,19.7-0.6c8.5-1.3,17.3-2.7,24.9,1.5
					c6.7,3.7,11.1,11.4,12,20.5c0.8,8.1-1.2,16.4-3,23.7l-8.6,36c-3.9,16.3-7.1,34.8,3.4,47.3c14.3,17.1,42.4,9.6,50.7,6.9l1-0.3
					c12.3-4,27.6-9.1,37.7-0.2c3.6,3.2,5.7,7.7,7.4,11.6c0.8,1.9,1.6,3.8,2.3,5.7c3.2,8,6.5,16.2,12.3,22.6
					c6.5,7.2,18.4,12.1,27.5,6.9c4.7-2.7,7.2-7.1,9.8-11.8c1.3-2.3,2.6-4.6,4.2-6.8C254.6,594.3,269.5,587.1,284.8,587.1z"/>
			</g>
		</g>
	</g>
	<g>
		<g>
			<g>
				<path class="st12" d="M378.9,290.9c-10.4,12.1-19.8,23.2-27.5,32.3c-1,1.2-2,2.3-2.9,3.4c-27.3,32.4-18.5,35.3-18.2,35.4l0,0
					c-14.7,14.5-34.6,36.8-56.8,63.1v89.5c40.7-46.4,78-91.1,97.1-118.6c0,0,0.1,0.2,0.3,0.4l0,0c0.7,0.7,2.8,1.7,8-1.4V290.9z"/>
			</g>
			<g>
				<path class="st13" d="M378.9,305.1c-7.6,8.9-14.5,17.1-20.4,24.1c-1,1.2-2,2.3-2.9,3.4c-27.3,32.4-20,34-19.7,34.1l0,0
					c-15.7,16.1-37.7,41.3-62.4,70.6v12.7c27.1-32.5,51.7-60.7,68.6-78.1l1.3-1.5c-0.3-0.1-8.8-0.2,18.4-32.6
					c0.9-1.1,1.9-2.2,2.9-3.4c4.2-5,9-10.7,14.2-16.7V305.1z"/>
			</g>
			<g>
				<path class="st11" d="M378.9,342.6c-7.9-6.6-17.2-13.4-27.5-19.3c-1,1.2-2,2.3-2.9,3.4c-27.3,32.4-18.5,35.3-18.2,35.4l0,0
					c0,0,9.1,5.8,21.1,15.9c5.9,5,12.6,11.1,19.2,18.1l0.3,0.4l0,0c0.7,0.7,2.8,1.7,8-1.4V342.6z"/>
			</g>
			<g>
				<path class="st8" d="M342.3,370.6c-3-2.3-5.5-4.1-7.5-5.5c-0.2-2.9,2.6-10.8,20.8-32.4c0.9-1.1,1.9-2.2,2.9-3.4l0.9-1.1
					c2.3,1.5,4.6,3.1,6.8,4.6l-1.5,1.8c-1,1.2-2,2.3-2.9,3.4C340.3,363.5,340.9,369.3,342.3,370.6z"/>
			</g>
			<g>
				<path class="st1" d="M343.1,371l-0.1,0.1c-0.1-0.1-0.3-0.2-0.4-0.3C342.9,371,343.1,371,343.1,371z"/>
			</g>
		</g>
	</g>
	<g>
		<g>
			<path class="st1" d="M200.1,223.3c0.1,0.7,0.2,1.5,0.2,2.2c0,0.7-0.1,1.4-0.2,2.1c-0.4,2-1.3,4-2.6,5.8c-0.4,0.5-0.8,1-1.2,1.5
				c-1,1.2-2.3,2.2-3.7,3.2c-1.6,1-3.2,1.9-5,2.5c-0.2,0.1-0.4,0.2-0.6,0.2c-3.3,1.2-6.8,1.6-10.1,1.5c-0.3,0-0.6,0-1-0.1
				c-2.5-0.2-4.9-0.8-7-1.8c-0.7-0.3-1.3-0.6-1.9-1c-1.9-1.2-3.5-2.7-4.6-4.6c-0.4-0.6-0.7-1.3-0.9-2c-0.2-0.6-0.4-1.2-0.5-1.9
				c-0.7-4.9,1.3-9.6,4.6-13.2c0.6-0.6,1.2-1.2,1.8-1.8c3.3-3,7.5-5.1,11.6-5.6c2.2-0.3,4.6-0.2,6.9,0.3c0.5,0.1,1,0.2,1.5,0.3
				C193.4,212.6,198.9,216.9,200.1,223.3z"/>
		</g>
		<g>
			<path class="st1" d="M170.1,223.3c0.1-0.1-0.4-0.5-1.3-0.9c-0.3-0.6-0.8-1.5-1.8-2.5c-1.8-1.9-5.2-4.1-9.8-5
				c-1.1-0.2-2.4-0.4-3.6-0.5c-1.3-0.1-2.6-0.1-4,0c-2.7,0.1-5.5,0.5-8.4,0.9c-2.9,0.4-5.9,1-8.9,1.1c-0.8,0-1.5,0.1-2.3,0.1
				c-0.8,0-1.6,0-2.3,0c-0.4,0-0.8,0-1.2,0c-0.4,0-0.8-0.1-1.2-0.1c-0.8-0.1-1.6-0.1-2.4-0.2c-6.5-0.7-12.5-2.5-17.6-4.8
				c-5.2-2.3-9.5-5.2-12.8-7.8c-3.4-2.6-5.8-5.2-7.6-6.9c-1.6-1.8-2.7-2.8-2.9-2.6c-0.3,0.1,0.2,1.6,1.2,4.1c1.1,2.5,2.7,6,5.3,10.1
				c2.6,4.1,6,8.9,10.8,13.4c2.4,2.2,5.2,4.3,8.4,6.1c1.6,0.9,3.2,1.7,5,2.4c1.8,0.7,3.6,1.2,5.5,1.6c1.9,0.4,3.9,0.6,5.8,0.6
				c1.9,0,3.8-0.1,5.5-0.4c3.6-0.5,6.9-1.5,9.9-2.5c6.1-2,11.3-4,15.8-5.1c2.2-0.6,4.3-0.9,6.1-1.1c1.8-0.2,3.4-0.1,4.7-0.1
				c1.2,0.1,2.1,0.2,2.8,0.2c0.1,0.1,0.2,0.1,0.3,0c0,0,0,0,0,0C169.7,223.4,170,223.4,170.1,223.3z"/>
		</g>
		<g>
			<path class="st1" d="M265.7,163.8c-0.3-0.1-1,1.2-1.9,3.4c-1.1,2.2-2.5,5.4-4.9,9c-2.3,3.6-5.5,7.7-9.6,11.5
				c-4.1,3.8-9.3,7.4-15.1,10.2c-0.7,0.3-1.5,0.6-2.2,0.9c-0.4,0.2-0.7,0.3-1.1,0.5c-0.4,0.1-0.7,0.3-1.1,0.4
				c-0.7,0.3-1.5,0.5-2.2,0.8c-0.7,0.2-1.5,0.4-2.2,0.6c-2.9,0.8-5.9,1.3-8.8,1.8c-2.9,0.5-5.7,1-8.3,1.8c-1.3,0.4-2.5,0.8-3.7,1.3
				c-1.2,0.5-2.3,1.1-3.3,1.7c-4.1,2.4-6.6,5.5-7.7,7.9c-0.6,1.2-0.8,2.2-0.9,2.9c-0.7,0.7-1,1.2-0.9,1.3c0.1,0.1,0.4,0,1-0.2
				c0,0,0,0,0,0c0.1,0,0.1,0,0.2-0.1c0.6-0.3,1.5-0.7,2.6-1.1c1.2-0.5,2.7-1,4.5-1.4c1.8-0.4,3.8-0.7,6.1-0.9
				c4.6-0.4,10.2-0.1,16.6-0.2c3.2-0.1,6.6-0.2,10.2-0.8c1.8-0.3,3.6-0.8,5.4-1.4c1.8-0.6,3.6-1.4,5.3-2.4c1.7-1,3.3-2.1,4.7-3.3
				c1.4-1.2,2.8-2.5,4-3.8c2.4-2.7,4.4-5.6,6-8.4c3.2-5.8,4.9-11.4,6-16.1c1.1-4.7,1.6-8.6,1.8-11.3
				C266.1,165.4,266,163.9,265.7,163.8z"/>
		</g>
		<g>
			<g>
				<g>
					<path class="st16" d="M177.4,238.7c-0.1,1.5-0.4,2.7-0.6,3.7c-0.3,0-0.6,0-1-0.1c0-0.9,0.1-2.2,0-3.6c0-0.8-0.2-1.7-0.4-2.6
						c-0.1-0.4-0.2-0.7-0.3-1.1c-0.1-0.3-0.3-0.7-0.5-1c-0.1-0.2-0.2-0.4-0.4-0.6c-0.6-0.8-1.3-1.5-2.3-2c-0.1,0-0.1-0.1-0.2-0.1
						c-0.9-0.5-2.1-0.9-3.2-1.7c0,0-0.1-0.1-0.1-0.1c-0.6-0.4-1.2-1-1.6-1.7c-0.4-0.6-0.7-1.3-0.9-2c-0.4-1.3-0.5-2.6-0.5-3.8
						c0-1.6,0.1-3.1,0.3-4.4c0.6-0.6,1.2-1.2,1.8-1.8c0,0.1,0,0.1,0,0.2c-0.1,1.7-0.1,3.7,0,6c0.1,2.2,0.6,4.6,2.4,5.8
						c0.9,0.7,2.1,1.1,3.3,1.7c0.6,0.3,1.2,0.7,1.7,1.2c0.5,0.5,0.9,1,1.3,1.5C177.3,234.6,177.5,236.9,177.4,238.7z"/>
				</g>
			</g>
			<g>
				<g>
					<path class="st16" d="M189.3,217.8c0.2,1.1,0.2,2.3,0.1,3.5c-0.1,1.2-0.3,2.5-0.8,3.7c-0.1,0.4-0.3,0.9-0.5,1.3
						c-0.3,0.7-0.7,1.4-1,2.1c-0.4,0.9-0.7,1.7-0.8,2.5c0,0.1,0,0.2-0.1,0.3c-0.1,0.4-0.1,0.8-0.1,1.2c0,0.4,0,0.9,0,1.3
						c0.1,1,0.2,1.9,0.4,2.7c0.3,1.5,0.7,2.8,0.9,3.6c0,0.2,0.1,0.4,0.1,0.5c-0.2,0.1-0.4,0.2-0.6,0.2c-0.1-0.1-0.2-0.3-0.3-0.5
						c-0.4-0.8-1-2-1.6-3.5c-0.5-1.6-1-3.6-0.8-5.9c0.1-1.1,0.4-2.4,0.9-3.5c0.5-1.1,1.1-2.1,1.4-3.2c0.4-1.1,0.6-2.1,0.7-3.2
						c0.1-1.1,0.1-2.1,0-3.1c-0.2-2-0.6-3.8-1-5.4c-0.2-0.8-0.4-1.5-0.5-2.1c0.5,0.1,1,0.2,1.5,0.3c0.2,0.4,0.3,0.8,0.5,1.3
						C188.3,213.7,189,215.6,189.3,217.8z"/>
				</g>
			</g>
			<g>
				<g>
					<path class="st16" d="M200.2,225.5c0,0.7-0.1,1.4-0.2,2.1c-1.4-0.7-3.1-1.3-4.9-1.4c-1.5-0.1-3,0.1-4.2,0.6
						c-1.2,0.5-2.2,1.2-2.9,1.9c-0.9,0.9-1.4,1.7-1.7,2.2c-0.2,0.3-0.3,0.5-0.5,0.4c-0.1,0-0.2-0.4-0.1-1.1c0.1-0.7,0.4-1.6,1.1-2.6
						c0.3-0.5,0.7-0.9,1.2-1.4c0.6-0.5,1.2-1,2-1.3c1.5-0.7,3.3-1.1,5.1-1C197.1,224.2,198.8,224.7,200.2,225.5
						C200.2,225.5,200.2,225.5,200.2,225.5z"/>
				</g>
			</g>
			<g>
				<g>
					<path class="st16" d="M197.4,233.4c-0.4,0.5-0.8,1-1.2,1.5c-0.8-0.5-1.8-1-3-1.3c-2.1-0.6-4.2-0.6-5.6-0.3
						c-0.6,0.1-1.1,0.3-1.5,0.4c-0.5,0.2-0.7,0.3-0.9,0.2c-0.1-0.1-0.1-0.4,0.2-0.8c0.1-0.2,0.4-0.5,0.7-0.7c0.3-0.2,0.6-0.4,1-0.6
						c0.8-0.4,1.8-0.6,3-0.7c1.1-0.1,2.4,0,3.7,0.4c1.3,0.4,2.4,1,3.4,1.7C197.2,233.3,197.3,233.4,197.4,233.4z"/>
				</g>
			</g>
			<g>
				<g>
					<path class="st16" d="M173.1,231.5c-0.1,0.2-0.6,0-1.4-0.1c-0.4-0.1-0.9-0.1-1.4-0.1c-1.6,0.1-3.9,0.7-6,2.1
						c-0.8,0.5-1.4,1-2,1.5c-0.4-0.6-0.7-1.3-0.9-2c0.5-0.5,1.1-0.9,1.8-1.3c1.8-1.1,3.7-1.7,5.4-1.8c0.7-0.1,1.3,0,1.9,0.1
						c1,0.2,1.7,0.5,2.2,0.9C173,231.1,173.2,231.4,173.1,231.5z"/>
				</g>
			</g>
			<g>
				<g>
					<path class="st16" d="M176.1,234.6c0,0.2-0.3,0.2-0.7,0.4c-0.1,0-0.2,0.1-0.3,0.1c-0.4,0.2-0.8,0.4-1.4,0.7
						c-0.7,0.5-1.4,1.1-2.3,1.8c-0.8,0.7-1.7,1.6-2.4,2.6c-0.1,0.1-0.2,0.2-0.2,0.3c-0.7-0.3-1.3-0.6-1.9-1c0.1-0.2,0.3-0.4,0.4-0.6
						c0.9-1.2,1.9-2.1,2.9-2.8c1-0.7,1.9-1.3,2.8-1.7c0.6-0.2,1.1-0.3,1.6-0.4c0.3,0,0.5,0,0.7,0
						C175.9,234.2,176.2,234.4,176.1,234.6z"/>
				</g>
			</g>
		</g>
	</g>
	<g>
		<g>
			<path class="st1" d="M160.7,208.2c-0.4,0.2-2.3-2.3-4.9-6.7c-1.3-2.2-2.9-4.8-4.5-7.7c-0.4-0.7-0.8-1.5-1.2-2.3
				c-0.2-0.4-0.4-0.8-0.6-1.2c-0.4-0.7-0.7-1.4-1.1-2.1c-0.4-0.8-0.8-1.6-1.3-2.4l-0.2-0.3c0-0.1-0.2-0.3,0-0.2l0.7,0
				c0.5,0,0.9,0,1.4,0.1c1.5,0.1,2.9,0.2,4.4,0.2c1,0.1,1.9,0.1,2.9,0.2c0.5,0,0.9,0.1,1.4,0.1l0.3,0c0.2,0,0.1,0,0.1,0l0,0
				c0,0,0,0,0.1,0c0,0,0,0,0,0l0-0.1l0,0l0,0l0,0l0,0l0,0c-0.2-0.4-0.3-0.8-0.4-1.2c-1.2-3.1-2.2-5.9-3.1-8.3
				c-1.8-4.8-2.7-7.8-2.3-8c0.4-0.2,2,2.5,4.3,7.1c1.1,2.3,2.4,5,3.8,8.1c0.2,0.4,0.3,0.8,0.5,1.2c0.3,0.7,0.6,1.5,0.9,2.3
				c0.2,0.4,0.3,0.8,0.5,1.2l0.2,0.6l0.1,0.3l0,0.1c0,0-0.1,0-0.1,0l-0.2,0c-0.9,0-1.8-0.1-2.7-0.1c-2.1-0.1-4.3-0.2-6.6-0.3
				c-0.4,0-0.9,0-1.3-0.1c0,0,0,0,0,0c0,0,0,0,0,0c0,0,0,0,0,0l0,0l0,0l0,0c0,0.1,0.1,0.2,0.1,0.3c0.2,0.4,0.4,0.8,0.6,1.2
				c0.4,0.8,0.8,1.6,1.1,2.3c1.5,3,2.8,5.7,3.9,8C159.9,205.1,161.1,208,160.7,208.2z"/>
		</g>
	</g>
	<g>
		<g>
			<path class="st1" d="M217.5,255.1c-0.3,0.2-1.8-1.9-4-5.5c-1.1-1.8-2.3-3.9-3.7-6.3c-0.3-0.6-0.7-1.2-1-1.9
				c-0.2-0.3-0.3-0.6-0.5-1c-0.3-0.6-0.6-1.2-0.9-1.7c-0.3-0.7-0.7-1.3-1-2l-0.1-0.3c0-0.1-0.2-0.2,0-0.2l0.6,0c0.4,0,0.8,0,1.1,0.1
				c1.2,0.1,2.4,0.1,3.6,0.2c0.8,0,1.6,0.1,2.3,0.1c0.4,0,0.8,0,1.1,0.1l0.3,0c0.1,0,0.1,0,0.1,0l0,0c0,0,0,0,0,0c0,0,0,0,0,0l0,0
				l0,0l0,0l0,0l0,0l0,0c-0.1-0.3-0.2-0.7-0.4-1c-1-2.6-1.8-4.9-2.6-6.8c-1.5-3.9-2.2-6.4-1.9-6.5c0.3-0.1,1.7,2.1,3.5,5.8
				c0.9,1.9,2,4.1,3.1,6.6c0.1,0.3,0.3,0.6,0.4,1c0.2,0.6,0.5,1.2,0.8,1.9c0.1,0.3,0.3,0.7,0.4,1l0.2,0.5l0.1,0.3l0,0.1
				c0,0,0,0-0.1,0l-0.1,0c-0.7,0-1.4-0.1-2.2-0.1c-1.7-0.1-3.5-0.2-5.4-0.3c-0.4,0-0.7,0-1-0.1c0,0,0,0,0,0c0,0,0,0,0,0c0,0,0,0,0,0
				l0,0l0,0l0,0c0,0.1,0.1,0.2,0.1,0.2c0.2,0.3,0.3,0.7,0.5,1c0.3,0.6,0.6,1.3,0.9,1.9c1.2,2.5,2.3,4.7,3.2,6.6
				C216.8,252.6,217.8,255,217.5,255.1z"/>
		</g>
	</g>
</g>
</svg>
