<svg xmlns="http://www.w3.org/2000/svg" viewBox="0 0 241.78 141.49"><defs><style>.cls-1{fill:#0b293d;}.cls-2{fill:#efab48;}.cls-3{fill:#ffcf7b;}.cls-4{fill:#80b7ce;}.cls-5{fill:#f2bb3b;}.cls-6{fill:#d2edf7;}.cls-7{fill:#99c6d6;}.cls-8{fill:#f9bd5d;}.cls-9{opacity:0.23;}.cls-10{fill:#4b89bc;}.cls-11{fill:#ffce6c;}.cls-12{opacity:0.25;}.cls-13{fill:#ed9c38;}.cls-14{fill:#e0892b;}.cls-15{fill:#ffedd7;}.cls-16{opacity:0.18;}.cls-17{fill:#fff;}.cls-18{opacity:0.09;}</style></defs><title>Risorsa 2</title><g id="Livello_2" data-name="Livello 2"><g id="Livello_1-2" data-name="Livello 1"><path class="cls-1" d="M221.61,92h0a2.6,2.6,0,0,0-1.28-2L95.53,5.71,104.62,0H84.7a7.54,7.54,0,0,0-3.45.77L4.67,41a3.64,3.64,0,0,0-.47.28h0c-9.46,4.44,0,10.18,0,10.18l131.67,89a7.4,7.4,0,0,0,4.59,1l19.56,0-7.6-5.58,67.42-35.4a2.85,2.85,0,0,0,1.77-2.25h0Z"/><path class="cls-2" d="M241.78,98.26V92l-4,2.28-129-87.17a7.93,7.93,0,0,0-7.39-.27l-74.22,39-4.13-2.45v6.06h0a2.59,2.59,0,0,0,1.3,2l131.67,89a7.93,7.93,0,0,0,7.39.28L240,100.5a2.87,2.87,0,0,0,1.77-2.25Z"/><path class="cls-3" d="M156,134.37l-131.67-89c-1.91-1.29-1.7-3.26.47-4.4L101.42.78a7.9,7.9,0,0,1,7.39.28L240.48,90c1.91,1.29,1.7,3.27-.47,4.41l-76.58,40.2A7.9,7.9,0,0,1,156,134.37Z"/><polygon class="cls-4" points="120.61 9.03 224.18 79.03 139.75 123.36 36.17 53.36 120.61 9.03"/><ellipse class="cls-4" cx="71.58" cy="26.6" rx="4.6" ry="2.74"/><path class="cls-5" d="M71.59,29.63a6.67,6.67,0,0,1-3.63-1,2.52,2.52,0,0,1-1.28-2.17,2.81,2.81,0,0,1,1.72-2.22,7.29,7.29,0,0,1,6.8.26h0a2.5,2.5,0,0,1,1.28,2.17,2.81,2.81,0,0,1-1.72,2.22A6.9,6.9,0,0,1,71.59,29.63Zm0-5.48a6.31,6.31,0,0,0-2.9.66,2.24,2.24,0,0,0-1.39,1.71,1.92,1.92,0,0,0,1,1.64,6.64,6.64,0,0,0,6.18.22,2.27,2.27,0,0,0,1.4-1.71,2,2,0,0,0-1-1.64h0A6,6,0,0,0,71.58,24.15Z"/><path class="cls-6" d="M72.33,24.88a8.75,8.75,0,0,0-1.78.41,3.12,3.12,0,0,0-1.32.85.84.84,0,0,0,.09,1.15,4.34,4.34,0,0,0,1.45,1,2.62,2.62,0,0,1-1.94-.49,1.64,1.64,0,0,1-.64-1,1.54,1.54,0,0,1,.31-1.21,2.85,2.85,0,0,1,1.88-1A3.4,3.4,0,0,1,72.33,24.88Z"/><ellipse class="cls-7" cx="71.58" cy="26.6" rx="0.88" ry="0.52"/><ellipse class="cls-8" cx="191.84" cy="107.87" rx="8.44" ry="5.03"/><path class="cls-2" d="M193.44,102.94a11.94,11.94,0,0,0-5,1.25c-3.49,1.83-3.83,5-.75,7.09a10.68,10.68,0,0,0,4.73,1.61,11.9,11.9,0,0,1-6.87-1.69c-3.08-2.09-2.74-5.26.76-7.09A12.72,12.72,0,0,1,193.44,102.94Z"/><g class="cls-9"><path class="cls-10" d="M115.74,36.62c-6.65,4.94-9.74,11.15-8.48,17a14.13,14.13,0,0,0,2.36,5.21c-9.87-.95-20.34.64-28.41,4.88-6.35,3.33-10.16,7.76-11.33,12.4l.52.35.55.37,32.93,22.25.52.36.54.36q2.39,0,4.8-.27c.29.34.59.67.91,1a18.63,18.63,0,0,0,6.83,4.06,29.63,29.63,0,0,0,4.07,1.08,39.41,39.41,0,0,0,4,.49,47.62,47.62,0,0,0,7.59-.13,1,1,0,0,0,.31-.08.4.4,0,0,0,.2-.23c0-.16-.12-.31-.37-.38a32,32,0,0,1-5.88-2,16.52,16.52,0,0,1-2.2-1.25,8,8,0,0,1-1.51-1.37,3.49,3.49,0,0,1-.85-2.72,3.76,3.76,0,0,1,.44-1.27,3.47,3.47,0,0,1,.34-.51c1.21-.5,2.3-1,3.33-1.54,11.85-6.22,14.83-16.23,8.36-24.34,10.73.85,22.28-1.23,31.12-5.87a37.92,37.92,0,0,0,5-3.1,28.61,28.61,0,0,0,4.5-4.14.49.49,0,0,0,.25-.21.43.43,0,0,0,0-.11h0l.2-.23a5.14,5.14,0,0,1,.55-.36,10.13,10.13,0,0,1,1.71-.79,13.54,13.54,0,0,1,4.46-.74,20.28,20.28,0,0,1,2.72.2,22.41,22.41,0,0,1,2.88.64c.52.14,1,.31,1.57.49l-1.15-.77-1-.66L149,28.21l-.57-.38-.53-.36C136.15,27.31,124,30.52,115.74,36.62Zm7.55,59.45-.14,0,.12,0Z"/></g><path class="cls-11" d="M146.42,26.48,187.15,54,187,54a23.48,23.48,0,0,0-3-.66,20.7,20.7,0,0,0-2.87-.22,14.7,14.7,0,0,0-4.79.8,10.55,10.55,0,0,0-1.82.84,5.46,5.46,0,0,0-.64.42c-.1.13-.22.26-.34.4l0,0s-.1,0-.11,0A27.17,27.17,0,0,1,169,59.8c-7.49,5.56-18.3,8.68-29,9A50.67,50.67,0,0,1,118.21,65c-6.17-2.74-10.12-6.56-11.76-10.78-2.38-6.11.12-13,7.75-18.72C122.46,29.37,134.7,26.21,146.42,26.48Z"/><g class="cls-12"><path class="cls-13" d="M132.84,61.39A22,22,0,0,1,140,68.8,50.67,50.67,0,0,1,118.21,65c-6.17-2.74-10.12-6.56-11.76-10.78C116.2,54.27,125.88,56.69,132.84,61.39Z"/></g><path class="cls-13" d="M113.73,35.27c-6.65,4.94-9.73,11.15-8.47,17,1.13,5.27,5.6,9.88,12.59,13,13.56,6,33.2,4.88,46.62-2.17a36.77,36.77,0,0,0,5-3.1,27.36,27.36,0,0,0,4.51-4.14.45.45,0,0,0,.25-.21.17.17,0,0,0,0-.1h0a2.2,2.2,0,0,0,.2-.23c.19-.13.37-.25.54-.35a9.84,9.84,0,0,1,1.72-.79,13.24,13.24,0,0,1,4.46-.75,20.35,20.35,0,0,1,2.72.21,24.37,24.37,0,0,1,2.88.63c.52.15,1,.31,1.57.5l-2.12-1.43c-.62-.15-1.29-.28-2-.4a23,23,0,0,0-3-.23,15.56,15.56,0,0,0-5.09.85,13.94,13.94,0,0,0-1.54.67l-.39.22a6.21,6.21,0,0,0-.69.45l-.07.07a2.62,2.62,0,0,1-.22.25l-.11.15,0,0,0,0a26.48,26.48,0,0,1-4.46,4.12C155.81,69,133.41,71.3,118.57,64.71c-6.72-3-11-7.42-12.11-12.49-1.22-5.7,1.77-11.71,8.22-16.5,8.24-6.12,20.6-9.24,32.31-8.86l-1.1-.74C134.15,26,122,29.16,113.73,35.27Z"/><path class="cls-13" d="M146.82,34.38,117.13,50a1.38,1.38,0,0,1-1.28,0c-.33-.23-.29-.57.08-.77l29.68-15.58a1.37,1.37,0,0,1,1.29,0C147.23,33.84,147.19,34.18,146.82,34.38Z"/><path class="cls-13" d="M143.74,44,123.83,54.49a1.43,1.43,0,0,1-1.29-.05c-.33-.23-.29-.57.09-.77l19.91-10.45a1.35,1.35,0,0,1,1.28.05C144.15,43.49,144.12,43.83,143.74,44Z"/><path class="cls-13" d="M148.84,49.39,130.52,59a1.35,1.35,0,0,1-1.28,0c-.34-.22-.3-.56.08-.76l18.32-9.62a1.35,1.35,0,0,1,1.28.05C149.26,48.85,149.22,49.19,148.84,49.39Z"/><path class="cls-13" d="M161.49,42.75l-7.06,3.71a1.43,1.43,0,0,1-1.29-.05c-.33-.23-.29-.57.09-.77l7.06-3.7a1.35,1.35,0,0,1,1.28.05C161.9,42.21,161.86,42.55,161.49,42.75Z"/><path class="cls-13" d="M147.36,58.21l-10.15,5.32a1.35,1.35,0,0,1-1.28-.05c-.33-.22-.3-.56.08-.76l10.15-5.33a1.41,1.41,0,0,1,1.28,0C147.77,57.67,147.73,58,147.36,58.21Z"/><path class="cls-11" d="M127.61,64.47c12.43,8.39,11.08,21.19-3,28.59-1.09.58-2.23,1.09-3.4,1.57l0,0a3.62,3.62,0,0,0-.41.61,3.75,3.75,0,0,0-.46,1.34,3.71,3.71,0,0,0,.89,2.91,8.81,8.81,0,0,0,1.6,1.44,15.46,15.46,0,0,0,2.3,1.31,33.36,33.36,0,0,0,6,2.06,47,47,0,0,1-7.44.13,34,34,0,0,1-3.93-.49,27.88,27.88,0,0,1-3.94-1A18.21,18.21,0,0,1,109.17,99a13.43,13.43,0,0,1-1.09-1.2,53.76,53.76,0,0,1-5.68.31l-34-23c1.06-4.66,4.82-9.12,11.21-12.48C93.71,55.26,115.19,56.07,127.61,64.47Z"/><path class="cls-13" d="M79.21,62.39c-6.35,3.34-10.16,7.77-11.33,12.41l1.07.72c.93-4.7,4.65-9.22,11.06-12.59,13.82-7.25,35-6.46,47.15,1.77s10.85,20.84-3,28.09c-1,.54-2.12,1-3.34,1.54a.64.64,0,0,0-.21.14s0,0,0,0a3.2,3.2,0,0,0-.44.64,3.8,3.8,0,0,0-.49,1.43,4,4,0,0,0,.95,3.1,9.47,9.47,0,0,0,1.68,1.52,16.19,16.19,0,0,0,2.38,1.35,29.46,29.46,0,0,0,4.21,1.58,44.48,44.48,0,0,1-5.18,0,32.34,32.34,0,0,1-3.81-.47,27.2,27.2,0,0,1-3.82-1,17.59,17.59,0,0,1-6.41-3.82,13.05,13.05,0,0,1-1.05-1.17.78.78,0,0,0-.65-.19,57,57,0,0,1-6.11.31l1.06.72c1.6,0,3.2-.12,4.81-.28a12,12,0,0,0,.91,1,18.65,18.65,0,0,0,6.83,4.07,28.3,28.3,0,0,0,4.07,1.07,37.11,37.11,0,0,0,4,.5,47.73,47.73,0,0,0,7.6-.13.8.8,0,0,0,.31-.09.36.36,0,0,0,.2-.22c0-.16-.12-.31-.37-.38a32,32,0,0,1-5.88-2,14.65,14.65,0,0,1-2.21-1.25,8.6,8.6,0,0,1-1.51-1.36,3.53,3.53,0,0,1-.84-2.72,3.89,3.89,0,0,1,.43-1.27,3.65,3.65,0,0,1,.35-.52A34.51,34.51,0,0,0,125,93.33c14.32-7.51,15.7-20.57,3.08-29.1S93.53,54.87,79.21,62.39Zm42.08,32.32-.14,0,.12,0Z"/><path class="cls-14" d="M113,85.69c-5.81,3-14.69,2.72-19.8-.74-.23-.15-.2-.38,0-.51a.91.91,0,0,1,.85,0c4.68,3.16,12.79,3.47,18.1.68a.91.91,0,0,1,.85,0C113.3,85.33,113.28,85.56,113,85.69Z"/><path class="cls-14" d="M93.77,84.77a9.54,9.54,0,0,1-6.47.77c-.31-.08-.44-.3-.3-.48a.81.81,0,0,1,.8-.18A7.63,7.63,0,0,0,93,84.23c1.49-.78,2.19-1.91,1.78-2.87-.08-.2.11-.39.44-.44a.7.7,0,0,1,.73.26C96.45,82.4,95.6,83.81,93.77,84.77Z"/><path class="cls-14" d="M93.36,72.71c-.34-.67-1.11-1.25-1.23-2s.49-1.67,1.81-1.83a4.52,4.52,0,0,1,3.86,2c1.19,1.48,1.67,3.56-.28,4.9-1.2.82-3.27.78-3.85-.35-.34-.66.1-1.59-.12-2.28A3.08,3.08,0,0,0,93.36,72.71Z"/><path class="cls-14" d="M106.24,70.44c-.34-.67-1.11-1.25-1.23-2s.5-1.67,1.81-1.83a4.47,4.47,0,0,1,3.86,2c1.2,1.48,1.68,3.56-.28,4.9-1.2.82-3.26.78-3.85-.35-.34-.66.11-1.59-.11-2.28A3.15,3.15,0,0,0,106.24,70.44Z"/><path class="cls-14" d="M105.85,80.44a4.54,4.54,0,0,1-3,.3c-.31-.07-.46-.28-.34-.47a.82.82,0,0,1,.79-.2,2.52,2.52,0,0,0,1.85-.26.62.62,0,0,0,0-1.08,2,2,0,0,0-1.7-.16.93.93,0,0,1-.85-.09c-.19-.16-.12-.39.15-.5a3.88,3.88,0,0,1,3.34.29,1.15,1.15,0,0,1,0,2A2.61,2.61,0,0,1,105.85,80.44Z"/><path class="cls-15" d="M91.88,71.1a2,2,0,0,1-.8-.47.39.39,0,0,1,.14-.63,1.44,1.44,0,0,1,.86-.09,2.53,2.53,0,0,1,.77.3,2.38,2.38,0,0,1,1,.83.46.46,0,0,1,0,.34.48.48,0,0,1-.36.25C93,71.72,92.26,71.25,91.88,71.1Z"/><path class="cls-15" d="M92.85,72.81c-.14,0-.28-.08-.32-.17s0-.23.23-.33a1,1,0,0,1,.49-.11.66.66,0,0,1,.34.08.49.49,0,0,1,.32.34.23.23,0,0,1-.06.16.48.48,0,0,1-.26.16C93.3,73,93,72.85,92.85,72.81Z"/><path class="cls-15" d="M104.71,68.41a2,2,0,0,1-.8-.48.4.4,0,0,1,.14-.63,1.4,1.4,0,0,1,.87-.08,2.45,2.45,0,0,1,.76.29,2.31,2.31,0,0,1,.95.83.42.42,0,0,1,.05.34.43.43,0,0,1-.36.25C105.81,69,105.1,68.55,104.71,68.41Z"/><path class="cls-15" d="M105.69,70.12c-.15,0-.28-.09-.32-.17s0-.23.23-.33a1,1,0,0,1,.49-.12.81.81,0,0,1,.34.08c.17.08.3.19.31.34a.21.21,0,0,1-.06.17.51.51,0,0,1-.25.15A1.27,1.27,0,0,1,105.69,70.12Z"/><g class="cls-16"><polygon class="cls-17" points="153.14 31.02 160.62 36.07 131.35 117.69 123.88 112.64 153.14 31.02"/><polygon class="cls-17" points="163.74 38.18 169.28 41.92 140.15 123.16 139.75 123.36 134.47 119.8 163.74 38.18"/><polygon class="cls-17" points="147.94 27.5 149.88 28.81 120.61 110.43 118.67 109.12 147.94 27.5"/></g><g class="cls-18"><polygon class="cls-17" points="114.43 4.85 121.9 9.91 92.64 91.53 85.16 86.47 114.43 4.85"/><polygon class="cls-17" points="125.02 12.01 130.56 15.76 101.43 96.99 101.03 97.2 95.75 93.63 125.02 12.01"/></g></g></g></svg>