<svg xmlns="http://www.w3.org/2000/svg" viewBox="0 0 765.61 428.46"><defs><style>.cls-1{fill:#f2bb3b;}.cls-2{fill:#fec2c2;}.cls-3{fill:#6ea2d6;}.cls-4{opacity:0.35;}.cls-5{fill:#074388;}.cls-6{opacity:0.49;}.cls-7{opacity:0.65;}.cls-8{fill:#b8dfff;}.cls-9{fill:#fcc85e;}</style></defs><title>Risorsa 1</title><g id="Livello_2" data-name="Livello 2"><g id="Livello_1-2" data-name="Livello 1"><path class="cls-1" d="M649,72.06a11.15,11.15,0,0,1-8.55-8.55,10.61,10.61,0,0,1-8.55,8.55,12.5,12.5,0,0,1,8.55,8.55,11.3,11.3,0,0,1,2.51-5A11.43,11.43,0,0,1,649,72.06Z"/><g id="_Gruppo_" data-name="&lt;Gruppo&gt;"><ellipse class="cls-2" cx="383.57" cy="148.77" rx="29.25" ry="12.5"/><path class="cls-3" d="M326.93,94.79c19.81-26.14,30.64-56.8-2.25-79.49-.7-.48-1.41-1-2.12-1.4C354.59-5.26,394.24-.59,422.68,23c14.73,12.23,22.75,27.2,31,44,12.37,25.15,39.39,28.2,64.18,23.15,20-4.09,41.46-12.9,62-6.91,21.41,6.24,32.67,25.41,34.46,46.57,1.62,19.25-5.59,48,10.76,62.66,27,24.26,68.35,13.46,99,30.15C756,240.06,769.6,280.33,761,315c-13.08,52.75-60.84,58.46-107.48,51.32-29.12-4.47-58.53,2.14-82.41,19.28-33.46,24-68.38,40.84-110.3,40.82-32.1,0-64.72-8.83-89.59-29.81C350.09,378.84,335.6,340,301.79,348q1.77-.57,3.57-1.08c29.55-8.28,58.46,6.5,87.84,7.89,50.05,2.38,98.4-33.73,92.06-87.27a77.76,77.76,0,0,0-96.14-66.3c-17.37,4.27-33.67,11.35-51.61,13.56-23.27,2.88-53.37-.92-63.34-25.72-4-10.07-3.56-20.73-.19-30.63a65.28,65.28,0,0,1,17.81-26.67C302.34,122.25,316,109.21,326.93,94.79Zm85.89,54c0-6.9-13.1-12.5-29.25-12.5s-29.25,5.6-29.25,12.5,13.09,12.5,29.25,12.5S412.82,155.68,412.82,148.77Z"/><path class="cls-3" d="M322.56,13.9c.71.45,1.42.92,2.12,1.4,32.89,22.69,22.06,53.35,2.25,79.49-10.93,14.42-24.59,27.46-35.14,37A65.28,65.28,0,0,0,274,158.48c-3.37,9.9-3.85,20.56.19,30.63,10,24.8,40.07,28.6,63.34,25.72,17.94-2.21,34.24-9.29,51.61-13.56a77.76,77.76,0,0,1,96.14,66.3c6.34,53.54-42,89.65-92.06,87.27-29.38-1.39-58.29-16.17-87.84-7.89q-1.8.51-3.57,1.08c-38.2,12.48-64.2,49.38-102.94,58.52-38.47,9.06-80-8.84-104.17-39.06-39-48.64-47.22-118.31-22.22-175,27.33-62,82-96,120.67-132,15.68-14.61,30.59-30.39,48.59-42.24S280.86.82,301,5.05A64.74,64.74,0,0,1,322.56,13.9Z"/><g class="cls-4"><path class="cls-5" d="M325.14,15a57.39,57.39,0,0,1,14.37,11,40.61,40.61,0,0,1,9.27,16.48c.26.77.37,1.57.56,2.37s.39,1.59.47,2.4a43.9,43.9,0,0,1,.46,4.86,48.35,48.35,0,0,1-.53,9.7,76.48,76.48,0,0,1-5.52,18.19l-1.41,3.22-4.31.28h0l5.72-3.5a125.19,125.19,0,0,1-9.85,18c-1.88,2.83-3.85,5.59-5.87,8.29l-1.52,2-1.58,2-3.16,3.92c-4.18,5.28-8.67,10.21-13.2,15.08-2.27,2.42-4.56,4.83-6.89,7.17l-3.5,3.47c-.95,1-1.89,2-2.77,3a56.07,56.07,0,0,0-8.69,13.62,41.72,41.72,0,0,0-3.76,14.6,29.8,29.8,0,0,0,2.27,13.34,24,24,0,0,0,7.8,10,36.7,36.7,0,0,0,12.68,5.83A64.83,64.83,0,0,0,322,202.15a94.18,94.18,0,0,0,16.74-1.33c2.78-.49,5.58-1.09,8.42-1.81s5.73-1.53,8.68-2.44c5.89-1.75,12-3.77,18.43-5.73,3.22-1,6.51-1.93,9.91-2.8l1.27-.33c.42-.11.92-.21,1.38-.32l2.81-.62c1.89-.36,3.78-.7,5.67-1a94,94,0,0,1,45.07,5.13,86,86,0,0,1,20.28,10.86,91.77,91.77,0,0,1,36.21,56.12l.54,2.79c.17.94.26,1.89.39,2.83l.35,2.83.19,2.81.17,2.8,0,2.83v2.82c0,.95-.1,1.89-.15,2.83A82.29,82.29,0,0,1,469,339.24a95.26,95.26,0,0,1-18,12.13A103.69,103.69,0,0,1,431.07,359a107.78,107.78,0,0,1-20.77,3.52c-.87.05-1.74.13-2.62.17l-2.62.06c-1.74.07-3.48,0-5.23,0s-3.47-.2-5.2-.35-3.45-.38-5.16-.6a167.37,167.37,0,0,1-19.74-4.19c-6.38-1.66-12.56-3.61-18.73-5.38a186.66,186.66,0,0,0-18.56-4.44,86.72,86.72,0,0,0-19-1.41l-.24-1.58a83.09,83.09,0,0,1,19.55-.52A170.85,170.85,0,0,1,352,347.14c12.71,2.51,25.28,5.7,38.06,6.65a98.93,98.93,0,0,0,37.83-4.5,93.69,93.69,0,0,0,17.49-7.7,85.64,85.64,0,0,0,15.39-11.26,72.24,72.24,0,0,0,20.4-31.67A74.17,74.17,0,0,0,482.64,261c-5.39-24.82-23.81-46.64-47.73-55.27a78.33,78.33,0,0,0-37.44-4.11c-1.57.2-3.13.48-4.69.76s-3.09.64-4.64,1.07c-3.11.77-6.2,1.66-9.29,2.57-6.17,1.84-12.32,3.85-18.57,5.66a159,159,0,0,1-19.07,4.44,108.25,108.25,0,0,1-19.62,1.25,79.18,79.18,0,0,1-19.5-2.87,49.46,49.46,0,0,1-17.73-8.93,38.37,38.37,0,0,1-11.64-16.13,41.17,41.17,0,0,1-2.45-9.71,45.1,45.1,0,0,1-.09-10,55.16,55.16,0,0,1,5.71-18.94,67.86,67.86,0,0,1,11.4-16.09c1.12-1.2,2.32-2.34,3.53-3.46L294.4,128q3.56-3.27,7.05-6.63c4.62-4.49,9.2-9,13.44-13.86l3.22-3.6,1.61-1.8,1.55-1.84q3.08-3.72,6-7.58A119.78,119.78,0,0,0,337.5,76.51l.31-.61h.69l-1,.61a68.56,68.56,0,0,0,6.06-16.12,41.6,41.6,0,0,0,.42-17A37.92,37.92,0,0,0,336.85,28a58.1,58.1,0,0,0-12.62-11.71Z"/></g><g class="cls-6"><g class="cls-7"><path class="cls-8" d="M620.26,187q-11.28,6-24.32,12.22C562.81,215,523.09,230.89,479.21,246,442,258.82,401.73,271.09,360,282.27,269.07,306.63,181.76,323,114.12,328.34c-15.35,1.22-29.35,1.84-41.91,1.86a169.6,169.6,0,0,1-7.14-20.06c12.79.24,28.43-.22,47.47-1.73C179,303.15,265,287,354.81,263c39.79-10.66,78.17-22.3,113.81-34.46,44.76-15.27,85.22-31.34,118.72-47.31,10.23-4.87,19.23-9.46,27.15-13.77C615.1,174.58,616.67,181.38,620.26,187Z"/></g></g><g class="cls-7"><path class="cls-8" d="M62.24,302a172.37,172.37,0,0,1-2.41-71.9,163,163,0,0,1,5.87-23.44c.57-1.94,1.34-3.81,2-5.71.36-.94.68-1.9,1-2.84l1.16-2.79,1.15-2.8c.38-.94.85-1.83,1.27-2.74l2.61-5.46c1.63-3.69,3.71-7.14,5.66-10.67L82.07,171c.25-.44.49-.88.75-1.32l.81-1.27,3.26-5.09a250.23,250.23,0,0,1,30.33-37.49c11.25-11.5,23.32-22.12,35.57-32.45S177.48,73,189.31,62.26s23-22.25,35.36-32.56a166.5,166.5,0,0,1,19.57-14.16,91.53,91.53,0,0,1,22.17-9.62l.41,1.44a101.76,101.76,0,0,0-10.39,5.84A93.63,93.63,0,0,0,246.94,20c-2.95,2.47-5.92,5-8.77,7.66s-5.59,5.43-8.29,8.25C219,47.1,208.94,59.31,197.4,71.11l-4.35,4.39-4.39,4.27c-2.93,2.86-5.92,5.56-8.89,8.32-5.91,5.51-11.91,10.78-17.8,16.1-2.91,2.69-5.88,5.29-8.8,7.93s-5.8,5.28-8.62,8c-5.68,5.32-11.29,10.65-16.59,16.2-2.63,2.77-5.41,5.44-7.88,8.32s-5.15,5.63-7.49,8.59-4.94,5.75-7.14,8.8L102,166.5l-.86,1.13-.79,1.16-1.6,2.32-3.22,4.63-.8,1.16c-.26.39-.49.8-.74,1.2l-1.45,2.4c-1.91,3.23-4,6.35-5.72,9.7a178.79,178.79,0,0,0-9.74,20.22l-2,5.26L73.2,221C72.06,224.6,71,228.23,70,231.9a201.8,201.8,0,0,0-4.59,22.52c-2.36,15.32-2.53,31.06-1.69,47.21Z"/></g><path class="cls-5" d="M178.35,410.89c-31.53,0-63.9-15.53-85.23-42.15-19.27-24.05-31.55-53.61-35.52-85.49a173.81,173.81,0,0,1,13-91.58c21.17-48,58.91-79.66,92.21-107.58,10.28-8.61,20-16.75,28.93-25.08,3.39-3.16,6.81-6.43,10.11-9.6,12-11.53,24.5-23.46,38.74-32.84C260.11,3.74,281.69-1.06,301.4,3.09a67,67,0,0,1,22.24,9.12c.72.46,1.45.95,2.17,1.44,12.32,8.49,19.51,18.73,21.39,30.43C349.59,59,343.31,76.48,328.53,96c-11.34,15-25.63,28.44-35.39,37.29a63,63,0,0,0-17.26,25.83c-3.48,10.22-3.43,20.33.15,29.24,11.39,28.34,49.75,25.9,61.24,24.48,11.14-1.37,21.92-4.74,32.34-8,6.18-1.93,12.57-3.92,19-5.51a79.75,79.75,0,0,1,98.6,68c2.72,22.95-4.07,43.91-19.64,60.61-17.11,18.35-42.88,29-69.7,29-1.6,0-3.2,0-4.8-.11-11-.52-22-2.9-32.61-5.2-18.71-4.05-36.39-7.87-54.6-2.77-1.18.34-2.36.69-3.49,1.06h0c-17.78,5.81-33.21,17.25-48.13,28.32-16.8,12.46-34.17,25.34-55,30.24A91.07,91.07,0,0,1,178.35,410.89ZM287.27,5.64c-14.81,0-30.2,4.88-44.45,14.27-13.94,9.18-26.26,21-38.17,32.39-3.31,3.18-6.74,6.46-10.15,9.64-9,8.4-18.77,16.57-29.09,25.22-33,27.63-70.33,59-91.12,106.12C49.53,249.44,58.35,319,96.24,366.24c25.17,31.41,66.22,46.82,102.15,38.36,20-4.72,36.27-16.78,53.5-29.56,15.18-11.26,30.88-22.9,49.28-28.91h0c1.18-.38,2.4-.75,3.64-1.11,19.16-5.37,38.16-1.26,56.53,2.71,10.48,2.27,21.31,4.61,31.95,5.11,27.37,1.3,54.05-9,71.39-27.63,14.73-15.81,21.16-35.66,18.59-57.41a75.77,75.77,0,0,0-93.68-64.59c-6.34,1.56-12.67,3.54-18.79,5.45-10.6,3.31-21.55,6.74-33.05,8.15-12.2,1.51-53,4-65.44-27-3.94-9.81-4-20.88-.23-32a67.19,67.19,0,0,1,18.36-27.5c9.65-8.74,23.76-22.06,34.89-36.75,14.1-18.61,20.13-35,17.91-48.87-1.7-10.58-8.33-19.92-19.7-27.77-.68-.46-1.37-.92-2.06-1.35A62.79,62.79,0,0,0,300.58,7,64.24,64.24,0,0,0,287.27,5.64Z"/><path class="cls-5" d="M460.89,428.46h-.08c-35.48,0-67.76-10.78-90.88-30.28-6.32-5.33-12.13-12.58-17.74-19.59-13.39-16.71-27.23-34-49.94-28.62l-.92-3.89c25.16-6,39.81,12.33,54,30,5.75,7.17,11.18,14,17.2,19,22.4,18.9,53.76,29.32,88.3,29.34h.08C497.33,424.46,531,412,570,384c24.06-17.27,53.85-24.24,83.88-19.63,26.64,4.08,48.62,3,65.33-3.1,20.67-7.6,34.1-23.31,39.9-46.72,8.93-36-6.19-73.95-35.93-90.18-13.11-7.14-28.66-9.18-43.69-11.15-19.68-2.57-40-5.24-55.64-19.26-12.65-11.36-12-30.33-11.41-47.07a146.32,146.32,0,0,0,0-16.91c-1.91-22.6-14.26-39.35-33-44.82-15.3-4.46-31.37-.37-46.91,3.58-4.66,1.19-9.48,2.42-14.16,3.37-18.49,3.76-51.69,5.62-66.37-24.23-8.21-16.67-16.17-31.44-30.5-43.34C392.71.74,354.32-2.77,323.59,15.61l-.66.4-2-3.44.64-.39A85.45,85.45,0,0,1,374.17.43a92,92,0,0,1,49.79,21C438.9,33.88,447.08,49,455.5,66.13c13.5,27.44,44.63,25.6,62,22.07,4.58-.94,9.15-2.1,14-3.32,16.06-4.09,32.66-8.31,49-3.55,20.42,6,33.84,24,35.9,48.32a152.37,152.37,0,0,1,0,17.39c-.58,16.64-1.17,33.85,10.08,44,14.69,13.2,33.53,15.66,53.49,18.28,15.4,2,31.32,4.1,45.08,11.6,31.32,17.09,47.26,56.89,37.9,94.65-11,44.5-48,62.27-109.72,52.82-29-4.45-57.73,2.27-80.94,18.92C532.58,415.75,498.22,428.46,460.89,428.46Z"/><path class="cls-5" d="M383.57,163.27c-17.81,0-31.25-6.24-31.25-14.5s13.44-14.5,31.25-14.5,31.25,6.23,31.25,14.5S401.39,163.27,383.57,163.27Zm0-25c-16.06,0-27.25,5.53-27.25,10.5s11.19,10.5,27.25,10.5,27.25-5.54,27.25-10.5S399.63,138.27,383.57,138.27Z"/><path class="cls-5" d="M296.67,168c-15.08,0-23.91-7.92-24.05-8a2,2,0,0,1,2.72-2.94c.77.7,19.16,17,49.38-2.22a2,2,0,0,1,2.15,3.38C315.18,165.59,305,168,296.67,168Z"/><path class="cls-5" d="M344.21,101.44a36.12,36.12,0,0,1-18.37-5A2,2,0,0,1,328,93.11h0a32.84,32.84,0,0,0,19.83,4.12,30.56,30.56,0,0,0,7.9-2,36.83,36.83,0,0,0,9-5.18,2,2,0,1,1,2.45,3.16,40.33,40.33,0,0,1-10,5.74,34.8,34.8,0,0,1-8.91,2.25A34.21,34.21,0,0,1,344.21,101.44Z"/><path class="cls-5" d="M366,106.26a1.94,1.94,0,0,1-1.2-.41l-9.47-7.17a2,2,0,1,1,2.41-3.19l9.47,7.17a2,2,0,0,1-1.21,3.6Z"/><path class="cls-5" d="M354.32,111.3a2,2,0,0,1-1.7-1l-6.24-10.08a2,2,0,1,1,3.4-2.1L356,108.25a2,2,0,0,1-.64,2.75A2.05,2.05,0,0,1,354.32,111.3Z"/></g><path class="cls-1" d="M71.1,320.64c-35,0-66.25-4.75-70.6-21-3.69-13.78,13.13-31.64,50-53.09l2,3.46C18.39,269.87,1.28,287.13,4.36,298.61c4.14,15.44,43.8,21.34,108.82,16.2,66.93-5.3,153.47-21.53,243.7-45.71s173.29-53.39,233.9-82.27c58.88-28.05,90.28-53,86.14-68.43-3-11.35-26-17.74-64.76-18l0-4c41.87.28,65,7.33,68.61,21,6.09,22.73-44.65,52.28-88.29,73.07-60.82,29-144.13,58.29-234.59,82.52S180.66,313.48,113.5,318.79C99.73,319.88,85.11,320.64,71.1,320.64Z"/><path class="cls-5" d="M77.71,313.89c-33.95,0-64.15-4.61-68.37-20.34C5.76,280.17,22.12,262.84,58,242l2,3.46c-33.14,19.24-49.75,35.94-46.77,47,4,14.92,42.48,20.59,105.58,15.57,65-5.17,149-20.95,236.63-44.43s168.28-51.83,227.14-79.84c57.16-27.2,87.65-51.35,83.65-66.27-2.93-11-25.24-17.12-62.81-17.34l0-4c40.69.23,63.11,7.07,66.66,20.31,5.91,22.06-43.4,50.74-85.8,70.91-59.07,28.11-140,56.56-227.83,80.09S184.32,306.87,119.1,312.07C105.67,313.14,91.38,313.89,77.71,313.89Z"/><path class="cls-1" d="M20.35,257.93s-3.16-12.58-10.83-12c0,0,10.75-2.54,11.75-13.87,0,0,.58,10.54,13.87,9.87C35.14,241.93,22.85,247.81,20.35,257.93Z"/><path class="cls-9" d="M342.12,261.5s-3.16-12.58-10.83-12c0,0,10.75-2.54,11.75-13.87,0,0,.58,10.54,13.87,9.87C356.91,245.5,344.62,251.38,342.12,261.5Z"/><path class="cls-9" d="M103.67,291.6A13.49,13.49,0,0,1,97.1,288a13.33,13.33,0,0,1-3.64-6.63,12.64,12.64,0,0,1-10.2,10.21,15,15,0,0,1,10.2,10.2,13.5,13.5,0,0,1,3-5.92A13.7,13.7,0,0,1,103.67,291.6Z"/><path class="cls-9" d="M444.66,270.37a13.39,13.39,0,0,1-14.43-.63,12.63,12.63,0,0,1-.63,14.42,15.2,15.2,0,0,1,8.24-1.47,15,15,0,0,1,6.18,2.1,13.59,13.59,0,0,1-1.79-6.39A13.75,13.75,0,0,1,444.66,270.37Z"/><path class="cls-9" d="M509,197.86a8.85,8.85,0,0,1-9.61-.42,8.46,8.46,0,0,1-.42,9.62,10.08,10.08,0,0,1,5.49-1,9.88,9.88,0,0,1,4.12,1.4,9.09,9.09,0,0,1-1.2-4.26A9.23,9.23,0,0,1,509,197.86Z"/><path class="cls-9" d="M607.75,217.16a11,11,0,0,1-5.1-10.8,10.6,10.6,0,0,1-4.85,4.36,10.48,10.48,0,0,1-6,.74A12.38,12.38,0,0,1,597,222.27a11.13,11.13,0,0,1,4-3.78A11.36,11.36,0,0,1,607.75,217.16Z"/><path class="cls-1" d="M49.17,338.83A13.35,13.35,0,0,1,39,328.63a12.64,12.64,0,0,1-10.2,10.2,15.23,15.23,0,0,1,7.06,4.48A15,15,0,0,1,39,349a13.5,13.5,0,0,1,3-5.92A13.67,13.67,0,0,1,49.17,338.83Z"/><path class="cls-9" d="M215,348.42s-3.39-13.29-11.27-12.92c0,0,7.19-4.71,7.38-12.75,0,0,4.75,6.88,12.37,4.25C223.46,327,215,335.59,215,348.42Z"/><path class="cls-9" d="M527.17,200s-6.6-12-14.13-9.7c0,0,5.79-6.35,4-14.18,0,0,6.32,5.47,13,1C530.05,177.11,524,187.53,527.17,200Z"/><path class="cls-1" d="M625.22,89.1s-2-7.8-6.61-7.58c0,0,4.22-2.76,4.33-7.48,0,0,2.78,4,7.26,2.49A19.36,19.36,0,0,0,625.22,89.1Z"/><path class="cls-9" d="M363.89,242.23s-2.1-8.22-7-8c0,0,4.45-2.91,4.57-7.88,0,0,2.93,4.25,7.65,2.62A20.41,20.41,0,0,0,363.89,242.23Z"/></g></g></svg>