<svg xmlns="http://www.w3.org/2000/svg" viewBox="0 0 1058.89 333.25"><defs><style>.cls-1{fill:#f9c358;}</style></defs><title>Risorsa 2</title><g id="Livello_2" data-name="Livello 2"><g id="test"><path class="cls-1" d="M0,216.87c0-42.34,46.55-76.65,104-76.65,1.29,0,2.56,0,3.84.05A32.21,32.21,0,0,1,104,125.19c0-19.68,18.64-36.41,44.65-42.61a57.88,57.88,0,0,1-.39-6.6c0-42,45.73-76,102.14-76S352.49,34,352.49,76c0,.21,0,.41,0,.62a64.9,64.9,0,0,1,69.18,38.86c1.67-.06,3.35-.1,5-.1,47,0,85.54,26.18,89.68,59.58a110.82,110.82,0,0,1,46.85-10c43.43,0,79.17,23,83.81,52.58a98,98,0,0,1,11.62-.69c26.87,0,50,10.7,60.68,26.13,12.27-10.21,31-16.73,52-16.73,33,0,60.44,16.15,65.92,37.39a218.54,218.54,0,0,1,26.65-1.6c36.54,0,67.44,8.59,77.69,20.41a282.62,282.62,0,0,1,36-2.21c44.9,0,81.3,9.58,81.3,21.4,0,6.48-11,12.28-28.27,16.21h0S939.89,343,740.89,329s-214-7.9-280-3.45S82,328.1,28.46,269.56h0C10.82,255.82,0,237.28,0,216.87Z"/></g></g></svg>