<svg xmlns="http://www.w3.org/2000/svg" viewBox="0 0 1058.89 333.25"><defs><style>.cls-1{fill:#f9c358;}</style></defs><title>Risorsa 5</title><g id="Livello_2" data-name="Livello 2"><g id="test"><path class="cls-1" d="M1058.89,216.87c0-42.34-46.54-76.65-104-76.65-1.28,0-2.56,0-3.83.05a32.31,32.31,0,0,0,3.83-15.08c0-19.68-18.64-36.41-44.65-42.61a57.88,57.88,0,0,0,.39-6.6c0-42-45.73-76-102.13-76S706.4,34,706.4,76c0,.21,0,.41,0,.62a64.91,64.91,0,0,0-69.19,38.86c-1.67-.06-3.35-.1-5-.1-47,0-85.55,26.18-89.69,59.58a110.81,110.81,0,0,0-46.84-10c-43.43,0-79.18,23-83.81,52.58a98.29,98.29,0,0,0-11.62-.69c-26.88,0-50,10.7-60.69,26.13-12.27-10.21-31-16.73-52-16.73-33,0-60.44,16.15-65.91,37.39a218.83,218.83,0,0,0-26.66-1.6c-36.54,0-67.44,8.59-77.69,20.41a282.5,282.5,0,0,0-36-2.21c-44.9,0-81.3,9.58-81.3,21.4,0,6.48,11,12.28,28.27,16.21h0S119,343,318,329s214-7.9,280-3.45,378.87,2.54,432.43-56h0C1048.07,255.82,1058.89,237.28,1058.89,216.87Z"/></g></g></svg>